999
dxfrw 0.6.3
  0
SECTION
  2
HEADER
  9
$ACADVER
  1
AC1021
  9
$DWGCODEPAGE
  3
ANSI_1252
  9
$INSBASE
 10
0
 20
0
 30
0
  9
$EXTMIN
 10
-1.5
 20
-95.66666666666667
 30
0
  9
$EXTMAX
 10
100.3330277262183
 20
23.25
 30
0
  9
$LIMMIN
 10
0
 20
0
  9
$LIMMAX
 10
420
 20
297
  9
$ORTHOMODE
 70
    0
  9
$REGENMODE
 70
    1
  9
$FILLMODE
 70
    1
  9
$QTEXTMODE
 70
    0
  9
$MIRRTEXT
 70
    0
  9
$LTSCALE
 40
1
  9
$ATTMODE
 70
    0
  9
$TEXTSIZE
 40
2.5
  9
$TRACEWID
 40
15.68
  9
$TEXTSTYLE
  7
STANDARD
  9
$CLAYER
  8
Dimensions
  9
$CELTYPE
  6
BYLAYER
  9
$CECOLOR
 62
  256
  9
$CELTSCALE
 40
1
  9
$DISPSILH
 70
    0
  9
$DIMSCALE
 40
2
  9
$DIMASZ
 40
1
  9
$DIMEXO
 40
0
  9
$DIMDLI
 40
3.75
  9
$DIMRND
 40
0
  9
$DIMDLE
 40
0
  9
$DIMEXE
 40
1.25
  9
$DIMTP
 40
0
  9
$DIMTM
 40
0
  9
$DIMTXT
 40
1
  9
$DIMCEN
 40
2.5
  9
$DIMTSZ
 40
0
  9
$DIMTOL
 70
    0
  9
$DIMLIM
 70
    0
  9
$DIMTIH
 70
    0
  9
$DIMTOH
 70
    0
  9
$DIMSE1
 70
    0
  9
$DIMSE2
 70
    0
  9
$DIMTAD
 70
    1
  9
$DIMZIN
 70
    8
  9
$DIMBLK
  1

  9
$DIMASO
 70
    1
  9
$DIMSHO
 70
    1
  9
$DIMPOST
  1

  9
$DIMAPOST
  1

  9
$DIMALT
 70
    0
  9
$DIMALTD
 70
    3
  9
$DIMALTF
 40
0.03937
  9
$DIMLFAC
 40
1
  9
$DIMTOFL
 70
    1
  9
$DIMTVP
 40
0
  9
$DIMTIX
 70
    0
  9
$DIMSOXD
 70
    0
  9
$DIMSAH
 70
    0
  9
$DIMBLK1
  1

  9
$DIMBLK2
  1

  9
$DIMSTYLE
  2
STANDARD
  9
$DIMCLRD
 70
    0
  9
$DIMCLRE
 70
    0
  9
$DIMCLRT
 70
    0
  9
$DIMTFAC
 40
1
  9
$DIMGAP
 40
0.625
  9
$DIMJUST
 70
    0
  9
$DIMSD1
 70
    0
  9
$DIMSD2
 70
    0
  9
$DIMTOLJ
 70
    0
  9
$DIMTZIN
 70
    8
  9
$DIMALTZ
 70
    0
  9
$DIMALTTZ
 70
    0
  9
$DIMUPT
 70
    0
  9
$DIMDEC
 70
    2
  9
$DIMTDEC
 70
    2
  9
$DIMALTU
 70
    2
  9
$DIMALTTD
 70
    3
  9
$DIMTXSTY
  7
standard
  9
$DIMAUNIT
 70
    0
  9
$DIMADEC
 70
    0
  9
$DIMALTRND
 40
0
  9
$DIMAZIN
 70
    0
  9
$DIMDSEP
 70
   44
  9
$DIMATFIT
 70
    3
  9
$DIMFRAC
 70
    0
  9
$DIMLDRBLK
  1
STANDARD
  9
$DIMLUNIT
 70
    2
  9
$DIMLWD
 70
   -2
  9
$DIMLWE
 70
   -2
  9
$DIMTMOVE
 70
    0
  9
$DIMFXL
 40
1
  9
$DIMFXLON
 70
    0
  9
$DIMJOGANG
 40
0.7854
  9
$DIMTFILL
 70
    0
  9
$DIMTFILLCLR
 70
    0
  9
$DIMARCSYM
 70
    0
  9
$DIMLTYPE
  6

  9
$DIMLTEX1
  6

  9
$DIMLTEX2
  6

  9
$LUNITS
 70
    2
  9
$LUPREC
 70
    4
  9
$SKETCHINC
 40
1
  9
$FILLETRAD
 40
0
  9
$AUNITS
 70
    0
  9
$AUPREC
 70
    2
  9
$MENU
  1
.
  9
$ELEVATION
 40
0
  9
$PELEVATION
 40
0
  9
$THICKNESS
 40
0
  9
$LIMCHECK
 70
    0
  9
$CHAMFERA
 40
0
  9
$CHAMFERB
 40
0
  9
$CHAMFERC
 40
0
  9
$CHAMFERD
 40
0
  9
$SKPOLY
 70
    0
  9
$USRTIMER
 70
    1
  9
$ANGBASE
 50
0
  9
$ANGDIR
 70
    0
  9
$PDMODE
 70
   96
  9
$PDSIZE
 40
-2
  9
$PLINEWID
 40
0
  9
$SPLFRAME
 70
    0
  9
$SPLINETYPE
 70
    2
  9
$SPLINESEGS
 70
    8
  9
$HANDSEED
  5
20000
  9
$SURFTAB1
 70
    6
  9
$SURFTAB2
 70
    6
  9
$SURFTYPE
 70
    6
  9
$SURFU
 70
    6
  9
$SURFV
 70
    6
  9
$UCSBASE
  2

  9
$UCSNAME
  2

  9
$UCSORG
 10
0
 20
0
 30
0
  9
$UCSXDIR
 10
1
 20
0
 30
0
  9
$UCSYDIR
 10
0
 20
1
 30
0
  9
$UCSORTHOREF
  2

  9
$UCSORTHOVIEW
 70
    0
  9
$UCSORGTOP
 10
0
 20
0
 30
0
  9
$UCSORGBOTTOM
 10
0
 20
0
 30
0
  9
$UCSORGLEFT
 10
0
 20
0
 30
0
  9
$UCSORGRIGHT
 10
0
 20
0
 30
0
  9
$UCSORGFRONT
 10
0
 20
0
 30
0
  9
$UCSORGBACK
 10
0
 20
0
 30
0
  9
$PUCSBASE
  2

  9
$PUCSNAME
  2

  9
$PUCSORG
 10
0
 20
0
 30
0
  9
$PUCSXDIR
 10
1
 20
0
 30
0
  9
$PUCSYDIR
 10
0
 20
1
 30
0
  9
$PUCSORTHOREF
  2

  9
$PUCSORTHOVIEW
 70
    0
  9
$PUCSORGTOP
 10
0
 20
0
 30
0
  9
$PUCSORGBOTTOM
 10
0
 20
0
 30
0
  9
$PUCSORGLEFT
 10
0
 20
0
 30
0
  9
$PUCSORGRIGHT
 10
0
 20
0
 30
0
  9
$PUCSORGFRONT
 10
0
 20
0
 30
0
  9
$PUCSORGBACK
 10
0
 20
0
 30
0
  9
$USERI1
 70
    0
  9
$USERI2
 70
    0
  9
$USERI3
 70
    0
  9
$USERI4
 70
    0
  9
$USERI5
 70
    0
  9
$USERR1
 40
0
  9
$USERR2
 40
0
  9
$USERR3
 40
0
  9
$USERR4
 40
0
  9
$USERR5
 40
0
  9
$WORLDVIEW
 70
    1
  9
$SHADEDGE
 70
    3
  9
$SHADEDIF
 70
   70
  9
$TILEMODE
 70
    1
  9
$MAXACTVP
 70
   64
  9
$PINSBASE
 10
0
 20
0
 30
0
  9
$PLIMCHECK
 70
    0
  9
$PEXTMIN
 10
0
 20
0
 30
0
  9
$PEXTMAX
 10
0
 20
0
 30
0
  9
$GRIDMODE
 70
    1
  9
$SNAPSTYLE
 70
    0
  9
$GRIDUNIT
 10
0
 20
0
  9
$PLIMMIN
 10
0
 20
0
  9
$PLIMMAX
 10
210
 20
297
  9
$UNITMODE
 70
    0
  9
$VISRETAIN
 70
    1
  9
$PLINEGEN
 70
    0
  9
$PSLTSCALE
 70
    1
  9
$TREEDEPTH
 70
 3020
  9
$CMLSTYLE
  2
Standard
  9
$CMLJUST
 70
    0
  9
$CMLSCALE
 40
20
  9
$PROXYGRAPHICS
 70
    1
  9
$MEASUREMENT
 70
    1
  9
$CELWEIGHT
370
   -1
  9
$ENDCAPS
280
    0
  9
$JOINSTYLE
280
    0
  9
$LWDISPLAY
290
    0
  9
$INSUNITS
 70
    4
  9
$HYPERLINKBASE
  1

  9
$STYLESHEET
  1

  9
$XEDIT
290
    1
  9
$CEPSNTYPE
380
    0
  9
$PSTYLEMODE
290
    1
  9
$EXTNAMES
290
    1
  9
$PSVPSCALE
 40
1
  9
$OLESTARTUP
290
    0
  9
$SORTENTS
280
  127
  9
$INDEXCTL
280
    0
  9
$HIDETEXT
280
    1
  9
$XCLIPFRAME
290
    0
  9
$HALOGAP
280
    0
  9
$OBSCOLOR
 70
  257
  9
$OBSLTYPE
280
    0
  9
$INTERSECTIONDISPLAY
280
    0
  9
$INTERSECTIONCOLOR
 70
  257
  9
$DIMASSOC
280
    1
  9
$PROJECTNAME
  1

  9
$CAMERADISPLAY
290
    0
  9
$LENSLENGTH
 40
50
  9
$CAMERAHEIGHT
 40
0
  9
$STEPSPERSEC
 40
2
  9
$STEPSIZE
 40
50
  9
$3DDWFPREC
 40
2
  9
$PSOLWIDTH
 40
5
  9
$PSOLHEIGHT
 40
80
  9
$LOFTANG1
 40
1.570796326794897
  9
$LOFTANG2
 40
1.570796326794897
  9
$LOFTMAG1
 40
0
  9
$LOFTMAG2
 40
0
  9
$LOFTPARAM
 70
    7
  9
$LOFTNORMALS
280
    1
  9
$LATITUDE
 40
1
  9
$LONGITUDE
 40
1
  9
$NORTHDIRECTION
 40
0
  9
$TIMEZONE
 70
-8000
  9
$LIGHTGLYPHDISPLAY
280
    1
  9
$TILEMODELIGHTSYNCH
280
    1
  9
$SOLIDHIST
280
    1
  9
$SHOWHIST
280
    1
  9
$DWFFRAME
280
    2
  9
$DGNFRAME
280
    0
  9
$REALWORLDSCALE
290
    1
  9
$INTERFERECOLOR
 62
    1
  9
$CSHADOW
280
    0
  9
$SHADOWPLANELOCATION
 40
0
  0
ENDSEC
  0
SECTION
  2
CLASSES
  0
ENDSEC
  0
SECTION
  2
TABLES
  0
TABLE
  2
VPORT
  5
8
330
0
100
AcDbSymbolTable
 70
    1
  0
VPORT
  5
31
330
2
100
AcDbSymbolTableRecord
100
AcDbViewportTableRecord
  2
*ACTIVE
 70
    0
 10
0
 20
0
 11
1
 21
1
 12
59.06110468371828
 22
-0.3972720045990019
 13
0
 23
0
 14
10
 24
10
 15
10
 25
10
 16
0
 26
0
 36
1
 17
0
 27
0
 37
0
 40
73.27461418159368
 41
1.832530120481928
 42
50
 43
0
 44
0
 50
0
 51
0
 71
    0
 72
  100
 73
    1
 74
    3
 75
    0
 76
    1
 77
    0
 78
    0
281
    0
 65
    1
110
0
120
0
130
0
111
1
121
0
131
0
112
0
122
1
132
0
 79
    0
146
0
348
10020
 60
    7
 61
    5
292
1
282
    1
141
0
142
0
 63
  250
421
3358443
  0
ENDTAB
  0
TABLE
  2
LTYPE
  5
5
330
0
100
AcDbSymbolTable
 70
    4
  0
LTYPE
  5
14
330
5
100
AcDbSymbolTableRecord
100
AcDbLinetypeTableRecord
  2
ByBlock
 70
    0
  3

 72
   65
 73
    0
 40
0
  0
LTYPE
  5
15
330
5
100
AcDbSymbolTableRecord
100
AcDbLinetypeTableRecord
  2
ByLayer
 70
    0
  3

 72
   65
 73
    0
 40
0
  0
LTYPE
  5
16
330
5
100
AcDbSymbolTableRecord
100
AcDbLinetypeTableRecord
  2
Continuous
 70
    0
  3
Solid line
 72
   65
 73
    0
 40
0
  0
LTYPE
  5
32
330
5
100
AcDbSymbolTableRecord
100
AcDbLinetypeTableRecord
  2
DOT
 70
    0
  3
Dot . . . . . . . . . . . . . . . . . . . . . .
 72
   65
 73
    2
 40
6.35
 49
0
 74
    0
 49
-6.35
 74
    0
  0
LTYPE
  5
33
330
5
100
AcDbSymbolTableRecord
100
AcDbLinetypeTableRecord
  2
DOTTINY
 70
    0
  3
Dot (.15x) .....................................
 72
   65
 73
    2
 40
0.9525
 49
0
 74
    0
 49
-0.9525
 74
    0
  0
LTYPE
  5
34
330
5
100
AcDbSymbolTableRecord
100
AcDbLinetypeTableRecord
  2
DOT2
 70
    0
  3
Dot (.5x) .....................................
 72
   65
 73
    2
 40
3.175
 49
0
 74
    0
 49
-3.175
 74
    0
  0
LTYPE
  5
35
330
5
100
AcDbSymbolTableRecord
100
AcDbLinetypeTableRecord
  2
DOTX2
 70
    0
  3
Dot (2x) .  .  .  .  .  .  .  .  .  .  .  .  .
 72
   65
 73
    2
 40
12.7
 49
0
 74
    0
 49
-12.7
 74
    0
  0
LTYPE
  5
36
330
5
100
AcDbSymbolTableRecord
100
AcDbLinetypeTableRecord
  2
DASHED
 70
    0
  3
Dashed _ _ _ _ _ _ _ _ _ _ _ _ _ _ _ _ _
 72
   65
 73
    2
 40
19.05
 49
12.7
 74
    0
 49
-6.35
 74
    0
  0
LTYPE
  5
37
330
5
100
AcDbSymbolTableRecord
100
AcDbLinetypeTableRecord
  2
DASHEDTINY
 70
    0
  3
Dashed (.15x) _ _ _ _ _ _ _ _ _ _ _ _ _ _ _ _ _
 72
   65
 73
    2
 40
2.8575
 49
1.905
 74
    0
 49
-0.9525
 74
    0
  0
LTYPE
  5
38
330
5
100
AcDbSymbolTableRecord
100
AcDbLinetypeTableRecord
  2
DASHED2
 70
    0
  3
Dashed (.5x) _ _ _ _ _ _ _ _ _ _ _ _ _ _ _ _ _
 72
   65
 73
    2
 40
9.524999999999999
 49
6.35
 74
    0
 49
-3.175
 74
    0
  0
LTYPE
  5
39
330
5
100
AcDbSymbolTableRecord
100
AcDbLinetypeTableRecord
  2
DASHEDX2
 70
    0
  3
Dashed (2x) ____  ____  ____  ____  ____  ___
 72
   65
 73
    2
 40
38.09999999999999
 49
25.4
 74
    0
 49
-12.7
 74
    0
  0
LTYPE
  5
3A
330
5
100
AcDbSymbolTableRecord
100
AcDbLinetypeTableRecord
  2
DASHDOT
 70
    0
  3
Dash dot __ . __ . __ . __ . __ . __ . __ . __
 72
   65
 73
    4
 40
25.4
 49
12.7
 74
    0
 49
-6.35
 74
    0
 49
0
 74
    0
 49
-6.35
 74
    0
  0
LTYPE
  5
3B
330
5
100
AcDbSymbolTableRecord
100
AcDbLinetypeTableRecord
  2
DASHDOTTINY
 70
    0
  3
Dash dot (.15x) _._._._._._._._._._._._._._._.
 72
   65
 73
    4
 40
3.81
 49
1.905
 74
    0
 49
-0.9525
 74
    0
 49
0
 74
    0
 49
-0.9525
 74
    0
  0
LTYPE
  5
3C
330
5
100
AcDbSymbolTableRecord
100
AcDbLinetypeTableRecord
  2
DASHDOT2
 70
    0
  3
Dash dot (.5x) _._._._._._._._._._._._._._._.
 72
   65
 73
    4
 40
12.7
 49
6.35
 74
    0
 49
-3.175
 74
    0
 49
0
 74
    0
 49
-3.175
 74
    0
  0
LTYPE
  5
3D
330
5
100
AcDbSymbolTableRecord
100
AcDbLinetypeTableRecord
  2
DASHDOTX2
 70
    0
  3
Dash dot (2x) ____  .  ____  .  ____  .  ___
 72
   65
 73
    4
 40
50.8
 49
25.4
 74
    0
 49
-12.7
 74
    0
 49
0
 74
    0
 49
-12.7
 74
    0
  0
LTYPE
  5
3E
330
5
100
AcDbSymbolTableRecord
100
AcDbLinetypeTableRecord
  2
DIVIDE
 70
    0
  3
Divide ____ . . ____ . . ____ . . ____ . . ____
 72
   65
 73
    6
 40
31.75
 49
12.7
 74
    0
 49
-6.35
 74
    0
 49
0
 74
    0
 49
-6.35
 74
    0
 49
0
 74
    0
 49
-6.35
 74
    0
  0
LTYPE
  5
3F
330
5
100
AcDbSymbolTableRecord
100
AcDbLinetypeTableRecord
  2
DIVIDETINY
 70
    0
  3
Divide (.15x) __..__..__..__..__..__..__..__.._
 72
   65
 73
    6
 40
4.7625
 49
1.905
 74
    0
 49
-0.9525
 74
    0
 49
0
 74
    0
 49
-0.9525
 74
    0
 49
0
 74
    0
 49
-0.9525
 74
    0
  0
LTYPE
  5
40
330
5
100
AcDbSymbolTableRecord
100
AcDbLinetypeTableRecord
  2
DIVIDE2
 70
    0
  3
Divide (.5x) __..__..__..__..__..__..__..__.._
 72
   65
 73
    6
 40
15.875
 49
6.35
 74
    0
 49
-3.175
 74
    0
 49
0
 74
    0
 49
-3.175
 74
    0
 49
0
 74
    0
 49
-3.175
 74
    0
  0
LTYPE
  5
41
330
5
100
AcDbSymbolTableRecord
100
AcDbLinetypeTableRecord
  2
DIVIDEX2
 70
    0
  3
Divide (2x) ________  .  .  ________  .  .  _
 72
   65
 73
    6
 40
63.5
 49
25.4
 74
    0
 49
-12.7
 74
    0
 49
0
 74
    0
 49
-12.7
 74
    0
 49
0
 74
    0
 49
-12.7
 74
    0
  0
LTYPE
  5
42
330
5
100
AcDbSymbolTableRecord
100
AcDbLinetypeTableRecord
  2
BORDER
 70
    0
  3
Border __ __ . __ __ . __ __ . __ __ . __ __ .
 72
   65
 73
    6
 40
44.45
 49
12.7
 74
    0
 49
-6.35
 74
    0
 49
12.7
 74
    0
 49
-6.35
 74
    0
 49
0
 74
    0
 49
-6.35
 74
    0
  0
LTYPE
  5
43
330
5
100
AcDbSymbolTableRecord
100
AcDbLinetypeTableRecord
  2
BORDERTINY
 70
    0
  3
Border (.15x) __.__.__.__.__.__.__.__.__.__.__.
 72
   65
 73
    6
 40
6.6675
 49
1.905
 74
    0
 49
-0.9525
 74
    0
 49
1.905
 74
    0
 49
-0.9525
 74
    0
 49
0
 74
    0
 49
-0.9525
 74
    0
  0
LTYPE
  5
44
330
5
100
AcDbSymbolTableRecord
100
AcDbLinetypeTableRecord
  2
BORDER2
 70
    0
  3
Border (.5x) __.__.__.__.__.__.__.__.__.__.__.
 72
   65
 73
    6
 40
22.225
 49
6.35
 74
    0
 49
-3.175
 74
    0
 49
6.35
 74
    0
 49
-3.175
 74
    0
 49
0
 74
    0
 49
-3.175
 74
    0
  0
LTYPE
  5
45
330
5
100
AcDbSymbolTableRecord
100
AcDbLinetypeTableRecord
  2
BORDERX2
 70
    0
  3
Border (2x) ____  ____  .  ____  ____  .  ___
 72
   65
 73
    6
 40
88.89999999999999
 49
25.4
 74
    0
 49
-12.7
 74
    0
 49
25.4
 74
    0
 49
-12.7
 74
    0
 49
0
 74
    0
 49
-12.7
 74
    0
  0
LTYPE
  5
46
330
5
100
AcDbSymbolTableRecord
100
AcDbLinetypeTableRecord
  2
CENTER
 70
    0
  3
Center ____ _ ____ _ ____ _ ____ _ ____ _ ____
 72
   65
 73
    4
 40
50.8
 49
31.75
 74
    0
 49
-6.35
 74
    0
 49
6.35
 74
    0
 49
-6.35
 74
    0
  0
LTYPE
  5
47
330
5
100
AcDbSymbolTableRecord
100
AcDbLinetypeTableRecord
  2
CENTERTINY
 70
    0
  3
Center (.15x) ___ _ ___ _ ___ _ ___ _ ___ _ ___
 72
   65
 73
    4
 40
7.619999999999999
 49
4.7625
 74
    0
 49
-0.9525
 74
    0
 49
0.9525
 74
    0
 49
-0.9525
 74
    0
  0
LTYPE
  5
48
330
5
100
AcDbSymbolTableRecord
100
AcDbLinetypeTableRecord
  2
CENTER2
 70
    0
  3
Center (.5x) ___ _ ___ _ ___ _ ___ _ ___ _ ___
 72
   65
 73
    4
 40
28.575
 49
19.05
 74
    0
 49
-3.175
 74
    0
 49
3.175
 74
    0
 49
-3.175
 74
    0
  0
LTYPE
  5
49
330
5
100
AcDbSymbolTableRecord
100
AcDbLinetypeTableRecord
  2
CENTERX2
 70
    0
  3
Center (2x) ________  __  ________  __  _____
 72
   65
 73
    4
 40
101.6
 49
63.5
 74
    0
 49
-12.7
 74
    0
 49
12.7
 74
    0
 49
-12.7
 74
    0
  0
ENDTAB
  0
TABLE
  2
LAYER
  5
2
330
0
100
AcDbSymbolTable
 70
    1
  0
LAYER
  5
10
330
2
100
AcDbSymbolTableRecord
100
AcDbLayerTableRecord
  2
0
 70
    0
 62
    7
  6
CONTINUOUS
370
    5
390
F
  0
LAYER
  5
4A
330
2
100
AcDbSymbolTableRecord
100
AcDbLayerTableRecord
  2
Coordinate_System
 70
    0
 62
    1
  6
CONTINUOUS
370
   15
390
F
  0
LAYER
  5
4B
330
2
100
AcDbSymbolTableRecord
100
AcDbLayerTableRecord
  2
Dimensions
 70
    0
 62
    5
  6
CONTINUOUS
370
    9
390
F
  0
LAYER
  5
4C
330
2
100
AcDbSymbolTableRecord
100
AcDbLayerTableRecord
  2
Winding_Zones
 70
    0
 62
    7
  6
DASHED2
370
    0
390
F
  0
ENDTAB
  0
TABLE
  2
STYLE
  5
3
330
0
100
AcDbSymbolTable
 70
    3
  0
STYLE
  5
4D
330
2
100
AcDbSymbolTableRecord
100
AcDbTextStyleTableRecord
  2
STANDARD
 70
    0
 40
0
 41
1
 50
0
 71
    0
 42
1
  3
STANDARD
  4

  0
ENDTAB
  0
TABLE
  2
VIEW
  5
6
330
0
100
AcDbSymbolTable
 70
    0
  0
ENDTAB
  0
TABLE
  2
UCS
  5
7
330
0
100
AcDbSymbolTable
 70
    0
  0
ENDTAB
  0
TABLE
  2
APPID
  5
9
330
0
100
AcDbSymbolTable
 70
    1
  0
APPID
  5
12
330
9
100
AcDbSymbolTableRecord
100
AcDbRegAppTableRecord
  2
ACAD
 70
    0
  0
APPID
  5
4E
330
9
100
AcDbSymbolTableRecord
100
AcDbRegAppTableRecord
  2
LibreCad
 70
    0
  0
ENDTAB
  0
TABLE
  2
DIMSTYLE
  5
A
330
0
100
AcDbSymbolTable
 70
    1
100
AcDbDimStyleTable
 71
    1
  0
DIMSTYLE
105
4F
330
A
100
AcDbSymbolTableRecord
100
AcDbDimStyleTableRecord
  2
Standard
 70
    0
 40
2
 41
1
 42
0
 43
0.38
 44
1.25
 45
0
 46
0
 47
0
 48
0
 49
1
140
1
141
0.09
142
0
143
25.4
144
1
145
0
146
1
147
0.625
148
0
 71
    0
 72
    0
 73
    0
 74
    1
 75
    0
 76
    0
 77
    0
 78
    8
 79
    0
170
    0
171
    2
172
    0
173
    0
174
    0
175
    0
176
    0
177
    0
178
    0
179
    0
271
    2
272
    4
273
    2
274
    2
275
    0
276
    0
277
    2
278
   44
279
    0
280
    0
281
    0
282
    0
283
    1
284
    0
285
    0
286
    0
288
    0
289
    3
340
standard
341

371
   -2
372
   -2
  0
ENDTAB
  0
TABLE
  2
BLOCK_RECORD
  5
1
330
0
100
AcDbSymbolTable
 70
    2
  0
BLOCK_RECORD
  5
1F
330
1
100
AcDbSymbolTableRecord
100
AcDbBlockTableRecord
  2
*Model_Space
 70
    0
280
    1
281
    0
  0
BLOCK_RECORD
  5
1E
330
1
100
AcDbSymbolTableRecord
100
AcDbBlockTableRecord
  2
*Paper_Space
 70
    0
280
    1
281
    0
  0
BLOCK_RECORD
  5
50
330
1
100
AcDbSymbolTableRecord
100
AcDbBlockTableRecord
  2
*D19
 70
    0
280
    1
281
    0
  0
BLOCK_RECORD
  5
53
330
1
100
AcDbSymbolTableRecord
100
AcDbBlockTableRecord
  2
*D12
 70
    0
280
    1
281
    0
  0
BLOCK_RECORD
  5
56
330
1
100
AcDbSymbolTableRecord
100
AcDbBlockTableRecord
  2
*D29
 70
    0
280
    1
281
    0
  0
BLOCK_RECORD
  5
59
330
1
100
AcDbSymbolTableRecord
100
AcDbBlockTableRecord
  2
*D21
 70
    0
280
    1
281
    0
  0
BLOCK_RECORD
  5
5C
330
1
100
AcDbSymbolTableRecord
100
AcDbBlockTableRecord
  2
*D31
 70
    0
280
    1
281
    0
  0
BLOCK_RECORD
  5
5F
330
1
100
AcDbSymbolTableRecord
100
AcDbBlockTableRecord
  2
*D4
 70
    0
280
    1
281
    0
  0
BLOCK_RECORD
  5
62
330
1
100
AcDbSymbolTableRecord
100
AcDbBlockTableRecord
  2
*D7
 70
    0
280
    1
281
    0
  0
BLOCK_RECORD
  5
65
330
1
100
AcDbSymbolTableRecord
100
AcDbBlockTableRecord
  2
*D8
 70
    0
280
    1
281
    0
  0
BLOCK_RECORD
  5
68
330
1
100
AcDbSymbolTableRecord
100
AcDbBlockTableRecord
  2
*D6
 70
    0
280
    1
281
    0
  0
BLOCK_RECORD
  5
6B
330
1
100
AcDbSymbolTableRecord
100
AcDbBlockTableRecord
  2
*D15
 70
    0
280
    1
281
    0
  0
BLOCK_RECORD
  5
6E
330
1
100
AcDbSymbolTableRecord
100
AcDbBlockTableRecord
  2
*D33
 70
    0
280
    1
281
    0
  0
BLOCK_RECORD
  5
71
330
1
100
AcDbSymbolTableRecord
100
AcDbBlockTableRecord
  2
*D14
 70
    0
280
    1
281
    0
  0
BLOCK_RECORD
  5
74
330
1
100
AcDbSymbolTableRecord
100
AcDbBlockTableRecord
  2
*D22
 70
    0
280
    1
281
    0
  0
BLOCK_RECORD
  5
77
330
1
100
AcDbSymbolTableRecord
100
AcDbBlockTableRecord
  2
*D25
 70
    0
280
    1
281
    0
  0
BLOCK_RECORD
  5
7A
330
1
100
AcDbSymbolTableRecord
100
AcDbBlockTableRecord
  2
*D18
 70
    0
280
    1
281
    0
  0
BLOCK_RECORD
  5
7D
330
1
100
AcDbSymbolTableRecord
100
AcDbBlockTableRecord
  2
*D26
 70
    0
280
    1
281
    0
  0
BLOCK_RECORD
  5
80
330
1
100
AcDbSymbolTableRecord
100
AcDbBlockTableRecord
  2
*D1
 70
    0
280
    1
281
    0
  0
BLOCK_RECORD
  5
83
330
1
100
AcDbSymbolTableRecord
100
AcDbBlockTableRecord
  2
*D20
 70
    0
280
    1
281
    0
  0
BLOCK_RECORD
  5
86
330
1
100
AcDbSymbolTableRecord
100
AcDbBlockTableRecord
  2
*D30
 70
    0
280
    1
281
    0
  0
BLOCK_RECORD
  5
89
330
1
100
AcDbSymbolTableRecord
100
AcDbBlockTableRecord
  2
*D11
 70
    0
280
    1
281
    0
  0
BLOCK_RECORD
  5
8C
330
1
100
AcDbSymbolTableRecord
100
AcDbBlockTableRecord
  2
*D3
 70
    0
280
    1
281
    0
  0
BLOCK_RECORD
  5
8F
330
1
100
AcDbSymbolTableRecord
100
AcDbBlockTableRecord
  2
*D32
 70
    0
280
    1
281
    0
  0
BLOCK_RECORD
  5
92
330
1
100
AcDbSymbolTableRecord
100
AcDbBlockTableRecord
  2
*D2
 70
    0
280
    1
281
    0
  0
BLOCK_RECORD
  5
95
330
1
100
AcDbSymbolTableRecord
100
AcDbBlockTableRecord
  2
*D13
 70
    0
280
    1
281
    0
  0
BLOCK_RECORD
  5
98
330
1
100
AcDbSymbolTableRecord
100
AcDbBlockTableRecord
  2
*D28
 70
    0
280
    1
281
    0
  0
BLOCK_RECORD
  5
9B
330
1
100
AcDbSymbolTableRecord
100
AcDbBlockTableRecord
  2
*D10
 70
    0
280
    1
281
    0
  0
BLOCK_RECORD
  5
9E
330
1
100
AcDbSymbolTableRecord
100
AcDbBlockTableRecord
  2
*D9
 70
    0
280
    1
281
    0
  0
BLOCK_RECORD
  5
A1
330
1
100
AcDbSymbolTableRecord
100
AcDbBlockTableRecord
  2
*D24
 70
    0
280
    1
281
    0
  0
BLOCK_RECORD
  5
A4
330
1
100
AcDbSymbolTableRecord
100
AcDbBlockTableRecord
  2
*D34
 70
    0
280
    1
281
    0
  0
BLOCK_RECORD
  5
A7
330
1
100
AcDbSymbolTableRecord
100
AcDbBlockTableRecord
  2
*D23
 70
    0
280
    1
281
    0
  0
BLOCK_RECORD
  5
AA
330
1
100
AcDbSymbolTableRecord
100
AcDbBlockTableRecord
  2
*D27
 70
    0
280
    1
281
    0
  0
BLOCK_RECORD
  5
AD
330
1
100
AcDbSymbolTableRecord
100
AcDbBlockTableRecord
  2
*D16
 70
    0
280
    1
281
    0
  0
BLOCK_RECORD
  5
B0
330
1
100
AcDbSymbolTableRecord
100
AcDbBlockTableRecord
  2
*D5
 70
    0
280
    1
281
    0
  0
BLOCK_RECORD
  5
B3
330
1
100
AcDbSymbolTableRecord
100
AcDbBlockTableRecord
  2
*D17
 70
    0
280
    1
281
    0
  0
ENDTAB
  0
ENDSEC
  0
SECTION
  2
BLOCKS
  0
BLOCK
  5
20
330
1F
100
AcDbEntity
  8
0
100
AcDbBlockBegin
  2
*Model_Space
 70
    0
 10
0
 20
0
 30
0
  3
*Model_Space
  1

  0
ENDBLK
  5
21
330
1F
100
AcDbEntity
  8
0
100
AcDbBlockEnd
  0
BLOCK
  5
1C
330
1B
100
AcDbEntity
  8
0
100
AcDbBlockBegin
  2
*Paper_Space
 70
    0
 10
0
 20
0
 30
0
  3
*Paper_Space
  1

  0
ENDBLK
  5
1D
330
1F
100
AcDbEntity
  8
0
100
AcDbBlockEnd
  0
BLOCK
  5
51
330
50
100
AcDbEntity
  8
0
100
AcDbBlockBegin
  2
*D19
 70
    1
 10
0
 20
0
  3
*D19
  1

  0
LINE
  5
B6
100
AcDbEntity
  8
Coordinate_System
  6
CONTINUOUS
 62
    7
370
    0
100
AcDbLine
 10
15.58012701892219
 20
-56.98557132924791
 11
11.25
 21
-54.48557132924791
  0
SOLID
  5
B7
100
AcDbEntity
  8
Coordinate_System
  6
CONTINUOUS
 62
    7
370
    0
100
AcDbTrace
 10
15.58012701892219
 20
-56.98557132924791
 30
0
 11
13.68156234824418
 21
-56.2739818003175
 31
0
 12
14.01459007446245
 22
-55.69716085817831
 32
0
 13
14.01459007446245
 23
-55.69716085817831
 33
0
  0
ENDBLK
  5
52
330
50
100
AcDbEntity
  8
0
100
AcDbBlockEnd
  0
BLOCK
  5
54
330
53
100
AcDbEntity
  8
0
100
AcDbBlockBegin
  2
*D12
 70
    1
 10
0
 20
0
  3
*D12
  1

  0
LINE
  5
B8
100
AcDbEntity
  8
Coordinate_System
  6
CONTINUOUS
 62
    7
370
    0
100
AcDbLine
 10
70
 20
10.5
 11
70
 21
15
  0
SOLID
  5
B9
100
AcDbEntity
  8
Coordinate_System
  6
CONTINUOUS
 62
    7
370
    0
100
AcDbTrace
 10
70
 20
10.5
 30
0
 11
69.66697227378172
 21
12.5
 31
0
 12
70.33302772621828
 22
12.5
 32
0
 13
70.33302772621828
 23
12.5
 33
0
  0
ENDBLK
  5
55
330
53
100
AcDbEntity
  8
0
100
AcDbBlockEnd
  0
BLOCK
  5
57
330
56
100
AcDbEntity
  8
0
100
AcDbBlockBegin
  2
*D29
 70
    1
 10
0
 20
0
  3
*D29
  1

  0
LINE
  5
BA
100
AcDbEntity
  8
Coordinate_System
  6
CONTINUOUS
 62
    7
370
    0
100
AcDbLine
 10
93.0801267973046
 20
-51.98557145719889
 11
88.74999977838242
 21
-54.48557145719889
  0
SOLID
  5
BB
100
AcDbEntity
  8
Coordinate_System
  6
CONTINUOUS
 62
    7
370
    0
100
AcDbTrace
 10
93.0801267973046
 20
-51.98557145719889
 30
0
 11
91.51458985284486
 21
-53.27398192826848
 31
0
 12
91.18156212662659
 22
-52.6971609861293
 32
0
 13
91.18156212662659
 23
-52.6971609861293
 33
0
  0
ENDBLK
  5
58
330
56
100
AcDbEntity
  8
0
100
AcDbBlockEnd
  0
BLOCK
  5
5A
330
59
100
AcDbEntity
  8
0
100
AcDbBlockBegin
  2
*D21
 70
    1
 10
0
 20
0
  3
*D21
  1

  0
LINE
  5
BC
100
AcDbEntity
  8
Coordinate_System
  6
CONTINUOUS
 62
    7
370
    0
100
AcDbLine
 10
45
 20
-29.99999974409806
 11
45
 21
-34.99999974409806
  0
SOLID
  5
BD
100
AcDbEntity
  8
Coordinate_System
  6
CONTINUOUS
 62
    7
370
    0
100
AcDbTrace
 10
45
 20
-29.99999974409806
 30
0
 11
45.33302772621827
 21
-31.99999974409806
 31
0
 12
44.66697227378173
 22
-31.99999974409806
 32
0
 13
44.66697227378173
 23
-31.99999974409806
 33
0
  0
ENDBLK
  5
5B
330
59
100
AcDbEntity
  8
0
100
AcDbBlockEnd
  0
BLOCK
  5
5D
330
5C
100
AcDbEntity
  8
0
100
AcDbBlockBegin
  2
*D31
 70
    1
 10
0
 20
0
  3
*D31
  1

  0
LINE
  5
BE
100
AcDbEntity
  8
Coordinate_System
  6
CONTINUOUS
 62
    7
370
    0
100
AcDbLine
 10
84.41987275946023
 20
-13.01442828689915
 11
88.74999977838243
 21
-15.51442828689915
  0
SOLID
  5
BF
100
AcDbEntity
  8
Coordinate_System
  6
CONTINUOUS
 62
    7
370
    0
100
AcDbTrace
 10
84.41987275946023
 20
-13.01442828689915
 30
0
 11
86.31843743013825
 21
-13.72601781582956
 31
0
 12
85.98540970391997
 22
-14.30283875796874
 32
0
 13
85.98540970391997
 23
-14.30283875796874
 33
0
  0
ENDBLK
  5
5E
330
5C
100
AcDbEntity
  8
0
100
AcDbBlockEnd
  0
BLOCK
  5
60
330
5F
100
AcDbEntity
  8
0
100
AcDbBlockBegin
  2
*D4
 70
    1
 10
0
 20
0
  3
*D4
  1

  0
LINE
  5
C0
100
AcDbEntity
  8
Coordinate_System
  6
CONTINUOUS
 62
    7
370
    0
100
AcDbLine
 10
7.5
 20
5.5
 11
7.5
 21
10
  0
SOLID
  5
C1
100
AcDbEntity
  8
Coordinate_System
  6
CONTINUOUS
 62
    7
370
    0
100
AcDbTrace
 10
7.5
 20
5.5
 30
0
 11
7.166972273781728
 21
7.5
 31
0
 12
7.833027726218273
 22
7.5
 32
0
 13
7.833027726218273
 23
7.5
 33
0
  0
ENDBLK
  5
61
330
5F
100
AcDbEntity
  8
0
100
AcDbBlockEnd
  0
BLOCK
  5
63
330
62
100
AcDbEntity
  8
0
100
AcDbBlockBegin
  2
*D7
 70
    1
 10
0
 20
0
  3
*D7
  1

  0
LINE
  5
C2
100
AcDbEntity
  8
Coordinate_System
  6
CONTINUOUS
 62
    7
370
    0
100
AcDbLine
 10
32.5
 20
10
 11
37.5
 21
10
  0
SOLID
  5
C3
100
AcDbEntity
  8
Coordinate_System
  6
CONTINUOUS
 62
    7
370
    0
100
AcDbTrace
 10
32.5
 20
10
 30
0
 11
34.5
 21
10.33302772621827
 31
0
 12
34.5
 22
9.666972273781727
 32
0
 13
34.5
 23
9.666972273781727
 33
0
  0
ENDBLK
  5
64
330
62
100
AcDbEntity
  8
0
100
AcDbBlockEnd
  0
BLOCK
  5
66
330
65
100
AcDbEntity
  8
0
100
AcDbBlockBegin
  2
*D8
 70
    1
 10
0
 20
0
  3
*D8
  1

  0
LINE
  5
C4
100
AcDbEntity
  8
Coordinate_System
  6
CONTINUOUS
 62
    7
370
    0
100
AcDbLine
 10
37.5
 20
5.5
 11
37.5
 21
10
  0
SOLID
  5
C5
100
AcDbEntity
  8
Coordinate_System
  6
CONTINUOUS
 62
    7
370
    0
100
AcDbTrace
 10
37.5
 20
5.5
 30
0
 11
37.16697227378173
 21
7.5
 31
0
 12
37.83302772621828
 22
7.5
 32
0
 13
37.83302772621828
 23
7.5
 33
0
  0
ENDBLK
  5
67
330
65
100
AcDbEntity
  8
0
100
AcDbBlockEnd
  0
BLOCK
  5
69
330
68
100
AcDbEntity
  8
0
100
AcDbBlockBegin
  2
*D6
 70
    1
 10
0
 20
0
  3
*D6
  1

  0
LINE
  5
C6
100
AcDbEntity
  8
Coordinate_System
  6
CONTINUOUS
 62
    7
370
    0
100
AcDbLine
 10
22.5
 20
5.5
 11
22.5
 21
10
  0
SOLID
  5
C7
100
AcDbEntity
  8
Coordinate_System
  6
CONTINUOUS
 62
    7
370
    0
100
AcDbTrace
 10
22.5
 20
5.5
 30
0
 11
22.16697227378173
 21
7.5
 31
0
 12
22.83302772621827
 22
7.5
 32
0
 13
22.83302772621827
 23
7.5
 33
0
  0
ENDBLK
  5
6A
330
68
100
AcDbEntity
  8
0
100
AcDbBlockEnd
  0
BLOCK
  5
6C
330
6B
100
AcDbEntity
  8
0
100
AcDbBlockBegin
  2
*D15
 70
    1
 10
0
 20
0
  3
*D15
  1

  0
LINE
  5
C8
100
AcDbEntity
  8
Coordinate_System
  6
CONTINUOUS
 62
    7
370
    0
100
AcDbLine
 10
95
 20
15
 11
100
 21
15
  0
SOLID
  5
C9
100
AcDbEntity
  8
Coordinate_System
  6
CONTINUOUS
 62
    7
370
    0
100
AcDbTrace
 10
95
 20
15
 30
0
 11
97
 21
15.33302772621827
 31
0
 12
97
 22
14.66697227378173
 32
0
 13
97
 23
14.66697227378173
 33
0
  0
ENDBLK
  5
6D
330
6B
100
AcDbEntity
  8
0
100
AcDbBlockEnd
  0
BLOCK
  5
6F
330
6E
100
AcDbEntity
  8
0
100
AcDbBlockBegin
  2
*D33
 70
    1
 10
0
 20
0
  3
*D33
  1

  0
LINE
  5
CA
100
AcDbEntity
  8
Dimensions
  6
ByBlock
 62
    0
370
   -2
100
AcDbLine
 10
43.52597420637585
 20
-43.00989416742331
 11
1.474025793624147
 21
-26.99010532077277
  0
MTEXT
  5
CB
100
AcDbEntity
  8
Dimensions
  6
CONTINUOUS
 62
    0
370
   -2
100
AcDbMText
 10
23.30098944233253
 20
-32.89740232346045
 30
0
 40
2
 41
29.00000000000056
 71
    5
 72
    1
  1
air_gap_length / pi
  7
standard
210
0
220
0
230
1
 50
339.1455431798441
 73
    2
 44
1
  0
SOLID
  5
CC
100
AcDbEntity
  8
Dimensions
  6
ByBlock
 62
    0
370
   -2
100
AcDbTrace
 10
43.52597420637585
 20
-43.00989416742331
 30
0
 11
41.53844241349584
 21
-42.60911388008211
 31
0
 12
41.77555502923348
 22
-41.98669322395114
 32
0
 13
41.77555502923348
 23
-41.98669322395114
 33
0
  0
SOLID
  5
CD
100
AcDbEntity
  8
Dimensions
  6
ByBlock
 62
    0
370
   -2
100
AcDbTrace
 10
1.474025793624147
 20
-26.99010532077277
 30
0
 11
3.461557586504153
 21
-27.39088560811398
 31
0
 12
3.224444970766514
 22
-28.01330626424495
 32
0
 13
3.224444970766514
 23
-28.01330626424495
 33
0
  0
ENDBLK
  5
70
330
6E
100
AcDbEntity
  8
0
100
AcDbBlockEnd
  0
BLOCK
  5
72
330
71
100
AcDbEntity
  8
0
100
AcDbBlockBegin
  2
*D14
 70
    1
 10
0
 20
0
  3
*D14
  1

  0
LINE
  5
CE
100
AcDbEntity
  8
Coordinate_System
  6
CONTINUOUS
 62
    7
370
    0
100
AcDbLine
 10
85
 20
10.5
 11
85
 21
15
  0
SOLID
  5
CF
100
AcDbEntity
  8
Coordinate_System
  6
CONTINUOUS
 62
    7
370
    0
100
AcDbTrace
 10
85
 20
10.5
 30
0
 11
84.66697227378172
 21
12.5
 31
0
 12
85.33302772621828
 22
12.5
 32
0
 13
85.33302772621828
 23
12.5
 33
0
  0
ENDBLK
  5
73
330
71
100
AcDbEntity
  8
0
100
AcDbBlockEnd
  0
BLOCK
  5
75
330
74
100
AcDbEntity
  8
0
100
AcDbBlockBegin
  2
*D22
 70
    1
 10
0
 20
0
  3
*D22
  1

  0
LINE
  5
D0
100
AcDbEntity
  8
Coordinate_System
  6
CONTINUOUS
 62
    7
370
    0
100
AcDbLine
 10
40.5
 20
-34.99999974409805
 11
45
 21
-34.99999974409806
  0
SOLID
  5
D1
100
AcDbEntity
  8
Coordinate_System
  6
CONTINUOUS
 62
    7
370
    0
100
AcDbTrace
 10
40.5
 20
-34.99999974409805
 30
0
 11
42.5
 21
-34.66697201787978
 31
0
 12
42.5
 22
-35.33302747031632
 32
0
 13
42.5
 23
-35.33302747031632
 33
0
  0
ENDBLK
  5
76
330
74
100
AcDbEntity
  8
0
100
AcDbBlockEnd
  0
BLOCK
  5
78
330
77
100
AcDbEntity
  8
0
100
AcDbBlockBegin
  2
*D25
 70
    1
 10
0
 20
0
  3
*D25
  1

  0
LINE
  5
D2
100
AcDbEntity
  8
Coordinate_System
  6
CONTINUOUS
 62
    7
370
    0
100
AcDbLine
 10
55
 20
-84
 11
60
 21
-84
  0
SOLID
  5
D3
100
AcDbEntity
  8
Coordinate_System
  6
CONTINUOUS
 62
    7
370
    0
100
AcDbTrace
 10
55
 20
-84
 30
0
 11
57
 21
-83.66697227378172
 31
0
 12
57
 22
-84.33302772621828
 32
0
 13
57
 23
-84.33302772621828
 33
0
  0
ENDBLK
  5
79
330
77
100
AcDbEntity
  8
0
100
AcDbBlockEnd
  0
BLOCK
  5
7B
330
7A
100
AcDbEntity
  8
0
100
AcDbBlockBegin
  2
*D18
 70
    1
 10
0
 20
0
  3
*D18
  1

  0
LINE
  5
D4
100
AcDbEntity
  8
Coordinate_System
  6
CONTINUOUS
 62
    7
370
    0
100
AcDbLine
 10
13.5
 20
-19.41154247597814
 11
11.25
 21
-15.51442815894817
  0
SOLID
  5
D5
100
AcDbEntity
  8
Coordinate_System
  6
CONTINUOUS
 62
    7
370
    0
100
AcDbTrace
 10
13.5
 20
-19.41154247597814
 30
0
 11
12.21158952893041
 21
-17.8460055315184
 31
0
 12
12.78841047106959
 22
-17.51297780530013
 32
0
 13
12.78841047106959
 23
-17.51297780530013
 33
0
  0
ENDBLK
  5
7C
330
7A
100
AcDbEntity
  8
0
100
AcDbBlockEnd
  0
BLOCK
  5
7E
330
7D
100
AcDbEntity
  8
0
100
AcDbBlockBegin
  2
*D26
 70
    1
 10
0
 20
0
  3
*D26
  1

  0
LINE
  5
D6
100
AcDbEntity
  8
Coordinate_System
  6
CONTINUOUS
 62
    7
370
    0
100
AcDbLine
 10
60
 20
-88.5
 11
60
 21
-84
  0
SOLID
  5
D7
100
AcDbEntity
  8
Coordinate_System
  6
CONTINUOUS
 62
    7
370
    0
100
AcDbTrace
 10
60
 20
-88.5
 30
0
 11
59.66697227378173
 21
-86.5
 31
0
 12
60.33302772621828
 22
-86.5
 32
0
 13
60.33302772621828
 23
-86.5
 33
0
  0
ENDBLK
  5
7F
330
7D
100
AcDbEntity
  8
0
100
AcDbBlockEnd
  0
BLOCK
  5
81
330
80
100
AcDbEntity
  8
0
100
AcDbBlockBegin
  2
*D1
 70
    1
 10
0
 20
0
  3
*D1
  1

  0
LINE
  5
D8
100
AcDbEntity
  8
Dimensions
  6
ByBlock
 62
    0
370
   -2
100
AcDbLine
 10
0
 20
20
 11
45
 21
20
  0
MTEXT
  5
D9
100
AcDbEntity
  8
Dimensions
  6
CONTINUOUS
 62
    0
370
   -2
100
AcDbMText
 10
22.5
 20
22.25
 30
0
 40
2
 41
22.22222222222278
 71
    5
 72
    1
  1
air_gap_length
  7
standard
210
0
220
0
230
1
 50
0
 73
    2
 44
1
  0
SOLID
  5
DA
100
AcDbEntity
  8
Dimensions
  6
ByBlock
 62
    0
370
   -2
100
AcDbTrace
 10
0
 20
20
 30
0
 11
2
 21
20.33302772621827
 31
0
 12
2
 22
19.66697227378173
 32
0
 13
2
 23
19.66697227378173
 33
0
  0
SOLID
  5
DB
100
AcDbEntity
  8
Dimensions
  6
ByBlock
 62
    0
370
   -2
100
AcDbTrace
 10
45
 20
20
 30
0
 11
43
 21
19.66697227378173
 31
0
 12
43
 22
20.33302772621827
 32
0
 13
43
 23
20.33302772621827
 33
0
  0
LINE
  5
DC
100
AcDbEntity
  8
Dimensions
  6
ByBlock
 62
    0
370
   -2
100
AcDbLine
 10
0
 20
10
 11
1.530808498934192e-16
 21
22.5
  0
LINE
  5
DD
100
AcDbEntity
  8
Dimensions
  6
ByBlock
 62
    0
370
   -2
100
AcDbLine
 10
45
 20
10
 11
45
 21
22.5
  0
ENDBLK
  5
82
330
80
100
AcDbEntity
  8
0
100
AcDbBlockEnd
  0
BLOCK
  5
84
330
83
100
AcDbEntity
  8
0
100
AcDbBlockBegin
  2
*D20
 70
    1
 10
0
 20
0
  3
*D20
  1

  0
LINE
  5
DE
100
AcDbEntity
  8
Coordinate_System
  6
CONTINUOUS
 62
    7
370
    0
100
AcDbLine
 10
13.5
 20
-50.58845701221794
 11
11.25
 21
-54.48557132924791
  0
SOLID
  5
DF
100
AcDbEntity
  8
Coordinate_System
  6
CONTINUOUS
 62
    7
370
    0
100
AcDbTrace
 10
13.5
 20
-50.58845701221794
 30
0
 11
12.78841047106959
 21
-52.48702168289595
 31
0
 12
12.21158952893041
 22
-52.15399395667768
 32
0
 13
12.21158952893041
 23
-52.15399395667768
 33
0
  0
ENDBLK
  5
85
330
83
100
AcDbEntity
  8
0
100
AcDbBlockEnd
  0
BLOCK
  5
87
330
86
100
AcDbEntity
  8
0
100
AcDbBlockBegin
  2
*D30
 70
    1
 10
0
 20
0
  3
*D30
  1

  0
LINE
  5
E0
100
AcDbEntity
  8
Coordinate_System
  6
CONTINUOUS
 62
    7
370
    0
100
AcDbLine
 10
86.49999977838242
 20
-50.58845714016891
 11
88.74999977838242
 21
-54.48557145719889
  0
SOLID
  5
E1
100
AcDbEntity
  8
Coordinate_System
  6
CONTINUOUS
 62
    7
370
    0
100
AcDbTrace
 10
86.49999977838242
 20
-50.58845714016891
 30
0
 11
87.78841024945201
 21
-52.15399408462866
 31
0
 12
87.21158930731282
 22
-52.48702181084693
 32
0
 13
87.21158930731282
 23
-52.48702181084693
 33
0
  0
ENDBLK
  5
88
330
86
100
AcDbEntity
  8
0
100
AcDbBlockEnd
  0
BLOCK
  5
8A
330
89
100
AcDbEntity
  8
0
100
AcDbBlockBegin
  2
*D11
 70
    1
 10
0
 20
0
  3
*D11
  1

  0
LINE
  5
E2
100
AcDbEntity
  8
Coordinate_System
  6
CONTINUOUS
 62
    7
370
    0
100
AcDbLine
 10
65
 20
15
 11
70
 21
15
  0
SOLID
  5
E3
100
AcDbEntity
  8
Coordinate_System
  6
CONTINUOUS
 62
    7
370
    0
100
AcDbTrace
 10
65
 20
15
 30
0
 11
67
 21
15.33302772621827
 31
0
 12
67
 22
14.66697227378173
 32
0
 13
67
 23
14.66697227378173
 33
0
  0
ENDBLK
  5
8B
330
89
100
AcDbEntity
  8
0
100
AcDbBlockEnd
  0
BLOCK
  5
8D
330
8C
100
AcDbEntity
  8
0
100
AcDbBlockBegin
  2
*D3
 70
    1
 10
0
 20
0
  3
*D3
  1

  0
LINE
  5
E4
100
AcDbEntity
  8
Coordinate_System
  6
CONTINUOUS
 62
    7
370
    0
100
AcDbLine
 10
2.5
 20
10
 11
7.5
 21
10
  0
SOLID
  5
E5
100
AcDbEntity
  8
Coordinate_System
  6
CONTINUOUS
 62
    7
370
    0
100
AcDbTrace
 10
2.5
 20
10
 30
0
 11
4.5
 21
10.33302772621827
 31
0
 12
4.5
 22
9.666972273781727
 32
0
 13
4.5
 23
9.666972273781727
 33
0
  0
ENDBLK
  5
8E
330
8C
100
AcDbEntity
  8
0
100
AcDbBlockEnd
  0
BLOCK
  5
90
330
8F
100
AcDbEntity
  8
0
100
AcDbBlockBegin
  2
*D32
 70
    1
 10
0
 20
0
  3
*D32
  1

  0
LINE
  5
E6
100
AcDbEntity
  8
Coordinate_System
  6
CONTINUOUS
 62
    7
370
    0
100
AcDbLine
 10
86.49999977838243
 20
-19.41154260392912
 11
88.74999977838243
 21
-15.51442828689915
  0
SOLID
  5
E7
100
AcDbEntity
  8
Coordinate_System
  6
CONTINUOUS
 62
    7
370
    0
100
AcDbTrace
 10
86.49999977838243
 20
-19.41154260392912
 30
0
 11
87.21158930731283
 21
-17.51297793325111
 31
0
 12
87.78841024945203
 22
-17.84600565946938
 32
0
 13
87.78841024945203
 23
-17.84600565946938
 33
0
  0
ENDBLK
  5
91
330
8F
100
AcDbEntity
  8
0
100
AcDbBlockEnd
  0
BLOCK
  5
93
330
92
100
AcDbEntity
  8
0
100
AcDbBlockBegin
  2
*D2
 70
    1
 10
0
 20
0
  3
*D2
  1

  0
LINE
  5
E8
100
AcDbEntity
  8
Dimensions
  6
ByBlock
 62
    0
370
   -2
100
AcDbLine
 10
55.00000000000001
 20
20
 11
100
 21
20
  0
MTEXT
  5
E9
100
AcDbEntity
  8
Dimensions
  6
CONTINUOUS
 62
    0
370
   -2
100
AcDbMText
 10
77.50000000000001
 20
22.25
 30
0
 40
2
 41
22.22222222222278
 71
    5
 72
    1
  1
air_gap_length
  7
standard
210
0
220
0
230
1
 50
0
 73
    2
 44
1
  0
SOLID
  5
EA
100
AcDbEntity
  8
Dimensions
  6
ByBlock
 62
    0
370
   -2
100
AcDbTrace
 10
55.00000000000001
 20
20
 30
0
 11
57.00000000000001
 21
20.33302772621827
 31
0
 12
57.00000000000001
 22
19.66697227378173
 32
0
 13
57.00000000000001
 23
19.66697227378173
 33
0
  0
SOLID
  5
EB
100
AcDbEntity
  8
Dimensions
  6
ByBlock
 62
    0
370
   -2
100
AcDbTrace
 10
100
 20
20
 30
0
 11
98
 21
19.66697227378173
 31
0
 12
98
 22
20.33302772621827
 32
0
 13
98
 23
20.33302772621827
 33
0
  0
LINE
  5
EC
100
AcDbEntity
  8
Dimensions
  6
ByBlock
 62
    0
370
   -2
100
AcDbLine
 10
55.00000000000001
 20
13.50000000000001
 11
55.00000000000001
 21
22.5
  0
LINE
  5
ED
100
AcDbEntity
  8
Dimensions
  6
ByBlock
 62
    0
370
   -2
100
AcDbLine
 10
100
 20
13.5
 11
100
 21
22.5
  0
ENDBLK
  5
94
330
92
100
AcDbEntity
  8
0
100
AcDbBlockEnd
  0
BLOCK
  5
96
330
95
100
AcDbEntity
  8
0
100
AcDbBlockBegin
  2
*D13
 70
    1
 10
0
 20
0
  3
*D13
  1

  0
LINE
  5
EE
100
AcDbEntity
  8
Coordinate_System
  6
CONTINUOUS
 62
    7
370
    0
100
AcDbLine
 10
80
 20
15
 11
85
 21
15
  0
SOLID
  5
EF
100
AcDbEntity
  8
Coordinate_System
  6
CONTINUOUS
 62
    7
370
    0
100
AcDbTrace
 10
80
 20
15
 30
0
 11
82
 21
15.33302772621827
 31
0
 12
82
 22
14.66697227378173
 32
0
 13
82
 23
14.66697227378173
 33
0
  0
ENDBLK
  5
97
330
95
100
AcDbEntity
  8
0
100
AcDbBlockEnd
  0
BLOCK
  5
99
330
98
100
AcDbEntity
  8
0
100
AcDbBlockBegin
  2
*D28
 70
    1
 10
0
 20
0
  3
*D28
  1

  0
LINE
  5
F0
100
AcDbEntity
  8
Coordinate_System
  6
CONTINUOUS
 62
    7
370
    0
100
AcDbLine
 10
59.49999977838242
 20
-34.99999987204901
 11
54.99999977838242
 21
-34.99999987204901
  0
SOLID
  5
F1
100
AcDbEntity
  8
Coordinate_System
  6
CONTINUOUS
 62
    7
370
    0
100
AcDbTrace
 10
59.49999977838242
 20
-34.99999987204901
 30
0
 11
57.49999977838242
 21
-35.33302759826728
 31
0
 12
57.49999977838242
 22
-34.66697214583074
 32
0
 13
57.49999977838242
 23
-34.66697214583074
 33
0
  0
ENDBLK
  5
9A
330
98
100
AcDbEntity
  8
0
100
AcDbBlockEnd
  0
BLOCK
  5
9C
330
9B
100
AcDbEntity
  8
0
100
AcDbBlockBegin
  2
*D10
 70
    1
 10
0
 20
0
  3
*D10
  1

  0
LINE
  5
F2
100
AcDbEntity
  8
Coordinate_System
  6
CONTINUOUS
 62
    7
370
    0
100
AcDbLine
 10
55
 20
10.5
 11
55
 21
15
  0
SOLID
  5
F3
100
AcDbEntity
  8
Coordinate_System
  6
CONTINUOUS
 62
    7
370
    0
100
AcDbTrace
 10
55
 20
10.5
 30
0
 11
54.66697227378173
 21
12.5
 31
0
 12
55.33302772621828
 22
12.5
 32
0
 13
55.33302772621828
 23
12.5
 33
0
  0
ENDBLK
  5
9D
330
9B
100
AcDbEntity
  8
0
100
AcDbBlockEnd
  0
BLOCK
  5
9F
330
9E
100
AcDbEntity
  8
0
100
AcDbBlockBegin
  2
*D9
 70
    1
 10
0
 20
0
  3
*D9
  1

  0
LINE
  5
F4
100
AcDbEntity
  8
Coordinate_System
  6
CONTINUOUS
 62
    7
370
    0
100
AcDbLine
 10
50
 20
15
 11
55
 21
15
  0
SOLID
  5
F5
100
AcDbEntity
  8
Coordinate_System
  6
CONTINUOUS
 62
    7
370
    0
100
AcDbTrace
 10
50
 20
15
 30
0
 11
52
 21
15.33302772621827
 31
0
 12
52
 22
14.66697227378173
 32
0
 13
52
 23
14.66697227378173
 33
0
  0
ENDBLK
  5
A0
330
9E
100
AcDbEntity
  8
0
100
AcDbBlockEnd
  0
BLOCK
  5
A2
330
A1
100
AcDbEntity
  8
0
100
AcDbBlockBegin
  2
*D24
 70
    1
 10
0
 20
0
  3
*D24
  1

  0
LINE
  5
F6
100
AcDbEntity
  8
Coordinate_System
  6
CONTINUOUS
 62
    7
370
    0
100
AcDbLine
 10
5
 20
-93.5
 11
5
 21
-89
  0
SOLID
  5
F7
100
AcDbEntity
  8
Coordinate_System
  6
CONTINUOUS
 62
    7
370
    0
100
AcDbTrace
 10
5
 20
-93.5
 30
0
 11
4.666972273781728
 21
-91.5
 31
0
 12
5.333027726218273
 22
-91.5
 32
0
 13
5.333027726218273
 23
-91.5
 33
0
  0
ENDBLK
  5
A3
330
A1
100
AcDbEntity
  8
0
100
AcDbBlockEnd
  0
BLOCK
  5
A5
330
A4
100
AcDbEntity
  8
0
100
AcDbBlockBegin
  2
*D34
 70
    1
 10
0
 20
0
  3
*D34
  1

  0
LINE
  5
F8
100
AcDbEntity
  8
Dimensions
  6
ByBlock
 62
    0
370
   -2
100
AcDbLine
 10
97.73278949678043
 20
-44.84297867410937
 11
57.26721050321959
 21
-25.15702132589061
  0
MTEXT
  5
F9
100
AcDbEntity
  8
Dimensions
  6
CONTINUOUS
 62
    0
370
   -2
100
AcDbMText
 10
78.48429786741096
 20
-32.97672105032195
 30
0
 40
2
 41
29.00000000000056
 71
    5
 72
    1
  1
air_gap_length / pi
  7
standard
210
0
220
0
230
1
 50
334.0577045101284
 73
    2
 44
1
  0
SOLID
  5
FA
100
AcDbEntity
  8
Dimensions
  6
ByBlock
 62
    0
370
   -2
100
AcDbTrace
 10
97.73278949678043
 20
-44.84297867410937
 30
0
 11
95.78863110564201
 21
-44.26751745335145
 31
0
 12
96.08000753293567
 22
-43.66857701947006
 32
0
 13
96.08000753293567
 23
-43.66857701947006
 33
0
  0
SOLID
  5
FB
100
AcDbEntity
  8
Dimensions
  6
ByBlock
 62
    0
370
   -2
100
AcDbTrace
 10
57.26721050321959
 20
-25.15702132589061
 30
0
 11
59.211368894358
 21
-25.73248254664852
 31
0
 12
58.91999246706435
 22
-26.33142298052992
 32
0
 13
58.91999246706435
 23
-26.33142298052992
 33
0
  0
ENDBLK
  5
A6
330
A4
100
AcDbEntity
  8
0
100
AcDbBlockEnd
  0
BLOCK
  5
A8
330
A7
100
AcDbEntity
  8
0
100
AcDbBlockBegin
  2
*D23
 70
    1
 10
0
 20
0
  3
*D23
  1

  0
LINE
  5
FC
100
AcDbEntity
  8
Coordinate_System
  6
CONTINUOUS
 62
    7
370
    0
100
AcDbLine
 10
0
 20
-89
 11
5
 21
-89
  0
SOLID
  5
FD
100
AcDbEntity
  8
Coordinate_System
  6
CONTINUOUS
 62
    7
370
    0
100
AcDbTrace
 10
0
 20
-89
 30
0
 11
2
 21
-88.66697227378172
 31
0
 12
2
 22
-89.33302772621828
 32
0
 13
2
 23
-89.33302772621828
 33
0
  0
ENDBLK
  5
A9
330
A7
100
AcDbEntity
  8
0
100
AcDbBlockEnd
  0
BLOCK
  5
AB
330
AA
100
AcDbEntity
  8
0
100
AcDbBlockBegin
  2
*D27
 70
    1
 10
0
 20
0
  3
*D27
  1

  0
LINE
  5
FE
100
AcDbEntity
  8
Coordinate_System
  6
CONTINUOUS
 62
    7
370
    0
100
AcDbLine
 10
54.99999977838242
 20
-39.99999987204902
 11
54.99999977838242
 21
-34.99999987204901
  0
SOLID
  5
FF
100
AcDbEntity
  8
Coordinate_System
  6
CONTINUOUS
 62
    7
370
    0
100
AcDbTrace
 10
54.99999977838242
 20
-39.99999987204902
 30
0
 11
54.66697205216415
 21
-37.99999987204902
 31
0
 12
55.33302750460069
 22
-37.99999987204902
 32
0
 13
55.33302750460069
 23
-37.99999987204902
 33
0
  0
ENDBLK
  5
AC
330
AA
100
AcDbEntity
  8
0
100
AcDbBlockEnd
  0
BLOCK
  5
AE
330
AD
100
AcDbEntity
  8
0
100
AcDbBlockBegin
  2
*D16
 70
    1
 10
0
 20
0
  3
*D16
  1

  0
LINE
  5
100
100
AcDbEntity
  8
Coordinate_System
  6
CONTINUOUS
 62
    7
370
    0
100
AcDbLine
 10
100
 20
10.5
 11
100
 21
15
  0
SOLID
  5
101
100
AcDbEntity
  8
Coordinate_System
  6
CONTINUOUS
 62
    7
370
    0
100
AcDbTrace
 10
100
 20
10.5
 30
0
 11
99.66697227378172
 21
12.5
 31
0
 12
100.3330277262183
 22
12.5
 32
0
 13
100.3330277262183
 23
12.5
 33
0
  0
ENDBLK
  5
AF
330
AD
100
AcDbEntity
  8
0
100
AcDbBlockEnd
  0
BLOCK
  5
B1
330
B0
100
AcDbEntity
  8
0
100
AcDbBlockBegin
  2
*D5
 70
    1
 10
0
 20
0
  3
*D5
  1

  0
LINE
  5
102
100
AcDbEntity
  8
Coordinate_System
  6
CONTINUOUS
 62
    7
370
    0
100
AcDbLine
 10
17.5
 20
10
 11
22.5
 21
10
  0
SOLID
  5
103
100
AcDbEntity
  8
Coordinate_System
  6
CONTINUOUS
 62
    7
370
    0
100
AcDbTrace
 10
17.5
 20
10
 30
0
 11
19.5
 21
10.33302772621827
 31
0
 12
19.5
 22
9.666972273781727
 32
0
 13
19.5
 23
9.666972273781727
 33
0
  0
ENDBLK
  5
B2
330
B0
100
AcDbEntity
  8
0
100
AcDbBlockEnd
  0
BLOCK
  5
B4
330
B3
100
AcDbEntity
  8
0
100
AcDbBlockBegin
  2
*D17
 70
    1
 10
0
 20
0
  3
*D17
  1

  0
LINE
  5
104
100
AcDbEntity
  8
Coordinate_System
  6
CONTINUOUS
 62
    7
370
    0
100
AcDbLine
 10
6.919872981077805
 20
-18.01442815894817
 11
11.25
 21
-15.51442815894817
  0
SOLID
  5
105
100
AcDbEntity
  8
Coordinate_System
  6
CONTINUOUS
 62
    7
370
    0
100
AcDbTrace
 10
6.919872981077805
 20
-18.01442815894817
 30
0
 11
8.485409925537546
 21
-16.72601768787858
 31
0
 12
8.818437651755819
 22
-17.30283863001776
 32
0
 13
8.818437651755819
 23
-17.30283863001776
 33
0
  0
ENDBLK
  5
B5
330
B3
100
AcDbEntity
  8
0
100
AcDbBlockEnd
  0
ENDSEC
  0
SECTION
  2
ENTITIES
  0
LINE
  5
106
100
AcDbEntity
  8
0
  6
ByLayer
 62
  256
370
   -1
100
AcDbLine
 10
0
 20
10
 11
45
 21
10
  0
LINE
  5
107
100
AcDbEntity
  8
0
  6
ByLayer
 62
  256
370
   -1
100
AcDbLine
 10
0
 20
0
 11
0
 21
10
  0
LINE
  5
108
100
AcDbEntity
  8
0
  6
ByLayer
 62
  256
370
   -1
100
AcDbLine
 10
55
 20
0
 11
55
 21
5
  0
LINE
  5
109
100
AcDbEntity
  8
0
  6
ByLayer
 62
  256
370
   -1
100
AcDbLine
 10
55
 20
5
 11
60
 21
5
  0
LINE
  5
10A
100
AcDbEntity
  8
0
  6
ByLayer
 62
  256
370
   -1
100
AcDbLine
 10
60
 20
5
 11
60
 21
13.5
  0
LINE
  5
10B
100
AcDbEntity
  8
0
  6
ByLayer
 62
  256
370
   -1
100
AcDbLine
 10
60
 20
13.5
 11
56.5
 21
13.5
  0
LINE
  5
10C
100
AcDbEntity
  8
0
  6
ByLayer
 62
  256
370
   -1
100
AcDbLine
 10
56.5
 20
13.5
 11
56.5
 21
15
  0
LINE
  5
10D
100
AcDbEntity
  8
0
  6
ByLayer
 62
  256
370
   -1
100
AcDbLine
 10
65
 20
13.5
 11
65
 21
5
  0
LINE
  5
10E
100
AcDbEntity
  8
0
  6
ByLayer
 62
  256
370
   -1
100
AcDbLine
 10
45
 20
0
 11
0
 21
0
  0
LINE
  5
10F
100
AcDbEntity
  8
Winding_Zones
  6
ByLayer
 62
  256
370
   -1
100
AcDbLine
 10
2.5
 20
10
 11
2.5
 21
15
  0
LINE
  5
110
100
AcDbEntity
  8
Winding_Zones
  6
ByLayer
 62
  256
370
   -1
100
AcDbLine
 10
2.5
 20
15
 11
12.5
 21
15
  0
LINE
  5
111
100
AcDbEntity
  8
Winding_Zones
  6
ByLayer
 62
  256
370
   -1
100
AcDbLine
 10
12.5
 20
15
 11
12.5
 21
10
  0
LINE
  5
112
100
AcDbEntity
  8
Winding_Zones
  6
ByLayer
 62
  256
370
   -1
100
AcDbLine
 10
17.5
 20
10
 11
17.5
 21
15
  0
LINE
  5
113
100
AcDbEntity
  8
Winding_Zones
  6
ByLayer
 62
  256
370
   -1
100
AcDbLine
 10
17.5
 20
15
 11
27.5
 21
15
  0
LINE
  5
114
100
AcDbEntity
  8
Winding_Zones
  6
ByLayer
 62
  256
370
   -1
100
AcDbLine
 10
27.5
 20
15
 11
27.5
 21
10
  0
LINE
  5
115
100
AcDbEntity
  8
Winding_Zones
  6
ByLayer
 62
  256
370
   -1
100
AcDbLine
 10
32.5
 20
10
 11
32.5
 21
15
  0
LINE
  5
116
100
AcDbEntity
  8
Winding_Zones
  6
ByLayer
 62
  256
370
   -1
100
AcDbLine
 10
32.5
 20
15
 11
42.5
 21
15
  0
LINE
  5
117
100
AcDbEntity
  8
Winding_Zones
  6
ByLayer
 62
  256
370
   -1
100
AcDbLine
 10
42.5
 20
15
 11
42.5
 21
10
  0
LINE
  5
118
100
AcDbEntity
  8
Winding_Zones
  6
ByLayer
 62
  256
370
   -1
100
AcDbLine
 10
2.5
 20
12.5
 11
12.5
 21
12.5
  0
LINE
  5
119
100
AcDbEntity
  8
Winding_Zones
  6
ByLayer
 62
  256
370
   -1
100
AcDbLine
 10
17.5
 20
12.5
 11
27.5
 21
12.5
  0
LINE
  5
11A
100
AcDbEntity
  8
Winding_Zones
  6
ByLayer
 62
  256
370
   -1
100
AcDbLine
 10
32.5
 20
12.5
 11
42.5
 21
12.5
  0
LINE
  5
11B
100
AcDbEntity
  8
0
  6
ByLayer
 62
  256
370
   -1
100
AcDbLine
 10
45
 20
10
 11
45
 21
0
  0
LINE
  5
11C
100
AcDbEntity
  8
0
  6
ByLayer
 62
  256
370
   -1
100
AcDbLine
 10
65
 20
5
 11
75
 21
5
  0
LINE
  5
11D
100
AcDbEntity
  8
0
  6
ByLayer
 62
  256
370
   -1
100
AcDbLine
 10
75
 20
5
 11
75
 21
13.5
  0
LINE
  5
11E
100
AcDbEntity
  8
0
  6
ByLayer
 62
  256
370
   -1
100
AcDbLine
 10
75
 20
13.5
 11
71.5
 21
13.5
  0
LINE
  5
11F
100
AcDbEntity
  8
0
  6
ByLayer
 62
  256
370
   -1
100
AcDbLine
 10
71.5
 20
13.5
 11
71.5
 21
15
  0
LINE
  5
120
100
AcDbEntity
  8
0
  6
ByLayer
 62
  256
370
   -1
100
AcDbLine
 10
65
 20
13.5
 11
68.5
 21
13.5
  0
LINE
  5
121
100
AcDbEntity
  8
0
  6
ByLayer
 62
  256
370
   -1
100
AcDbLine
 10
68.5
 20
13.5
 11
68.5
 21
15
  0
LINE
  5
122
100
AcDbEntity
  8
0
  6
ByLayer
 62
  256
370
   -1
100
AcDbLine
 10
100
 20
0
 11
100
 21
5
  0
LINE
  5
123
100
AcDbEntity
  8
0
  6
ByLayer
 62
  256
370
   -1
100
AcDbLine
 10
100
 20
5
 11
95
 21
5
  0
LINE
  5
124
100
AcDbEntity
  8
0
  6
ByLayer
 62
  256
370
   -1
100
AcDbLine
 10
95
 20
5
 11
95
 21
13.5
  0
LINE
  5
125
100
AcDbEntity
  8
0
  6
ByLayer
 62
  256
370
   -1
100
AcDbLine
 10
95
 20
13.5
 11
98.5
 21
13.5
  0
LINE
  5
126
100
AcDbEntity
  8
0
  6
ByLayer
 62
  256
370
   -1
100
AcDbLine
 10
98.5
 20
13.5
 11
98.5
 21
15
  0
LINE
  5
127
100
AcDbEntity
  8
0
  6
ByLayer
 62
  256
370
   -1
100
AcDbLine
 10
55
 20
0
 11
100
 21
0
  0
LINE
  5
128
100
AcDbEntity
  8
0
  6
ByLayer
 62
  256
370
   -1
100
AcDbLine
 10
80
 20
13.5
 11
80
 21
5
  0
LINE
  5
129
100
AcDbEntity
  8
0
  6
ByLayer
 62
  256
370
   -1
100
AcDbLine
 10
80
 20
5
 11
90
 21
5
  0
LINE
  5
12A
100
AcDbEntity
  8
0
  6
ByLayer
 62
  256
370
   -1
100
AcDbLine
 10
90
 20
5
 11
90
 21
13.5
  0
LINE
  5
12B
100
AcDbEntity
  8
0
  6
ByLayer
 62
  256
370
   -1
100
AcDbLine
 10
90
 20
13.5
 11
86.5
 21
13.5
  0
LINE
  5
12C
100
AcDbEntity
  8
0
  6
ByLayer
 62
  256
370
   -1
100
AcDbLine
 10
86.5
 20
13.5
 11
86.5
 21
15
  0
LINE
  5
12D
100
AcDbEntity
  8
0
  6
ByLayer
 62
  256
370
   -1
100
AcDbLine
 10
80
 20
13.5
 11
83.5
 21
13.5
  0
LINE
  5
12E
100
AcDbEntity
  8
0
  6
ByLayer
 62
  256
370
   -1
100
AcDbLine
 10
83.5
 20
13.5
 11
83.5
 21
15
  0
LINE
  5
12F
100
AcDbEntity
  8
0
  6
ByLayer
 62
  256
370
   -1
100
AcDbLine
 10
56.5
 20
15
 11
68.5
 21
15
  0
LINE
  5
130
100
AcDbEntity
  8
0
  6
ByLayer
 62
  256
370
   -1
100
AcDbLine
 10
71.5
 20
15
 11
83.5
 21
15
  0
LINE
  5
131
100
AcDbEntity
  8
0
  6
ByLayer
 62
  256
370
   -1
100
AcDbLine
 10
86.5
 20
15
 11
98.5
 21
15
  0
LINE
  5
132
100
AcDbEntity
  8
Winding_Zones
  6
ByLayer
 62
  256
370
   -1
100
AcDbLine
 10
56.5
 20
13.5
 11
55.00000000000001
 21
13.5
  0
LINE
  5
133
100
AcDbEntity
  8
Winding_Zones
  6
ByLayer
 62
  256
370
   -1
100
AcDbLine
 10
55.00000000000001
 20
13.5
 11
55
 21
5
  0
LINE
  5
134
100
AcDbEntity
  8
Winding_Zones
  6
ByLayer
 62
  256
370
   -1
100
AcDbLine
 10
68.5
 20
13.5
 11
71.5
 21
13.5
  0
LINE
  5
135
100
AcDbEntity
  8
Winding_Zones
  6
ByLayer
 62
  256
370
   -1
100
AcDbLine
 10
83.5
 20
13.5
 11
86.5
 21
13.5
  0
LINE
  5
136
100
AcDbEntity
  8
Winding_Zones
  6
ByLayer
 62
  256
370
   -1
100
AcDbLine
 10
98.5
 20
13.5
 11
100
 21
13.5
  0
LINE
  5
137
100
AcDbEntity
  8
Winding_Zones
  6
ByLayer
 62
  256
370
   -1
100
AcDbLine
 10
100
 20
13.5
 11
100
 21
5
  0
LINE
  5
138
100
AcDbEntity
  8
Winding_Zones
  6
ByLayer
 62
  256
370
   -1
100
AcDbLine
 10
70
 20
13.5
 11
70
 21
5
  0
LINE
  5
139
100
AcDbEntity
  8
Winding_Zones
  6
ByLayer
 62
  256
370
   -1
100
AcDbLine
 10
85
 20
13.5
 11
85
 21
5
  0
DIMENSION
  5
13A
100
AcDbEntity
  8
Dimensions
  6
ByLayer
 62
  256
370
   -1
100
AcDbDimension
  2
*D1
 10
45
 20
20
 30
0
 11
22.5
 21
22.25
 31
0
 70
   32
  1
air_gap_length
 71
    5
  3
Standard
 53
0
210
0
220
0
230
1
100
AcDbAlignedDimension
 13
0
 23
10
 33
0
 14
45
 24
10
 34
0
100
AcDbRotatedDimension
  0
DIMENSION
  5
13B
100
AcDbEntity
  8
Dimensions
  6
ByLayer
 62
  256
370
   -1
100
AcDbDimension
  2
*D2
 10
100
 20
20
 30
0
 11
77.50000000000001
 21
22.25
 31
0
 70
   32
  1
air_gap_length
 71
    5
  3
Standard
 53
0
210
0
220
0
230
1
100
AcDbAlignedDimension
 13
55.00000000000001
 23
13.50000000000001
 33
0
 14
100
 24
13.5
 34
0
100
AcDbRotatedDimension
  0
LEADER
  5
13C
100
AcDbEntity
  8
Coordinate_System
  6
ByLayer
 62
  256
370
   -1
100
AcDbLeader
  3
Standard
 71
    1
 72
    0
 73
    3
 74
    0
 75
    0
 40
1
 41
10
 76
2
 76
2
 10
2.5
 20
10
 30
0
 10
7.5
 20
10
 30
0
  0
LEADER
  5
13D
100
AcDbEntity
  8
Coordinate_System
  6
ByLayer
 62
  256
370
   -1
100
AcDbLeader
  3
Standard
 71
    1
 72
    0
 73
    3
 74
    0
 75
    0
 40
1
 41
10
 76
2
 76
2
 10
7.5
 20
5.5
 30
0
 10
7.5
 20
10
 30
0
  0
MTEXT
  5
13E
100
AcDbEntity
  8
Coordinate_System
  6
ByLayer
 62
  256
370
   -1
100
AcDbMText
 10
1
 20
10
 30
0
 40
2
 41
0.8888888888888888
 71
    1
 72
    1
  1
x
  7
STANDARD
210
0
220
0
230
1
 50
0
 73
    2
 44
1
  0
MTEXT
  5
13F
100
AcDbEntity
  8
Coordinate_System
  6
ByLayer
 62
  256
370
   -1
100
AcDbMText
 10
6
 20
6
 30
0
 40
2
 41
0.8888888888888888
 71
    1
 72
    1
  1
y
  7
STANDARD
210
0
220
0
230
1
 50
0
 73
    2
 44
1
  0
LEADER
  5
140
100
AcDbEntity
  8
Coordinate_System
  6
ByLayer
 62
  256
370
   -1
100
AcDbLeader
  3
Standard
 71
    1
 72
    0
 73
    3
 74
    0
 75
    0
 40
1
 41
10
 76
2
 76
2
 10
17.5
 20
10
 30
0
 10
22.5
 20
10
 30
0
  0
LEADER
  5
141
100
AcDbEntity
  8
Coordinate_System
  6
ByLayer
 62
  256
370
   -1
100
AcDbLeader
  3
Standard
 71
    1
 72
    0
 73
    3
 74
    0
 75
    0
 40
1
 41
10
 76
2
 76
2
 10
22.5
 20
5.5
 30
0
 10
22.5
 20
10
 30
0
  0
MTEXT
  5
142
100
AcDbEntity
  8
Coordinate_System
  6
ByLayer
 62
  256
370
   -1
100
AcDbMText
 10
16
 20
10
 30
0
 40
2
 41
0.8888888888888888
 71
    1
 72
    1
  1
x
  7
STANDARD
210
0
220
0
230
1
 50
0
 73
    2
 44
1
  0
MTEXT
  5
143
100
AcDbEntity
  8
Coordinate_System
  6
ByLayer
 62
  256
370
   -1
100
AcDbMText
 10
21
 20
6
 30
0
 40
2
 41
0.8888888888888888
 71
    1
 72
    1
  1
y
  7
STANDARD
210
0
220
0
230
1
 50
0
 73
    2
 44
1
  0
LEADER
  5
144
100
AcDbEntity
  8
Coordinate_System
  6
ByLayer
 62
  256
370
   -1
100
AcDbLeader
  3
Standard
 71
    1
 72
    0
 73
    3
 74
    0
 75
    0
 40
1
 41
10
 76
2
 76
2
 10
32.5
 20
10
 30
0
 10
37.5
 20
10
 30
0
  0
LEADER
  5
145
100
AcDbEntity
  8
Coordinate_System
  6
ByLayer
 62
  256
370
   -1
100
AcDbLeader
  3
Standard
 71
    1
 72
    0
 73
    3
 74
    0
 75
    0
 40
1
 41
10
 76
2
 76
2
 10
37.5
 20
5.5
 30
0
 10
37.5
 20
10
 30
0
  0
MTEXT
  5
146
100
AcDbEntity
  8
Coordinate_System
  6
ByLayer
 62
  256
370
   -1
100
AcDbMText
 10
31
 20
10
 30
0
 40
2
 41
0.8888888888888888
 71
    1
 72
    1
  1
x
  7
STANDARD
210
0
220
0
230
1
 50
0
 73
    2
 44
1
  0
MTEXT
  5
147
100
AcDbEntity
  8
Coordinate_System
  6
ByLayer
 62
  256
370
   -1
100
AcDbMText
 10
36
 20
6
 30
0
 40
2
 41
0.8888888888888888
 71
    1
 72
    1
  1
y
  7
STANDARD
210
0
220
0
230
1
 50
0
 73
    2
 44
1
  0
LEADER
  5
148
100
AcDbEntity
  8
Coordinate_System
  6
ByLayer
 62
  256
370
   -1
100
AcDbLeader
  3
Standard
 71
    1
 72
    0
 73
    3
 74
    0
 75
    0
 40
1
 41
10
 76
2
 76
2
 10
50
 20
15
 30
0
 10
55
 20
15
 30
0
  0
LEADER
  5
149
100
AcDbEntity
  8
Coordinate_System
  6
ByLayer
 62
  256
370
   -1
100
AcDbLeader
  3
Standard
 71
    1
 72
    0
 73
    3
 74
    0
 75
    0
 40
1
 41
10
 76
2
 76
2
 10
55
 20
10.5
 30
0
 10
55
 20
15
 30
0
  0
MTEXT
  5
14A
100
AcDbEntity
  8
Coordinate_System
  6
ByLayer
 62
  256
370
   -1
100
AcDbMText
 10
48.5
 20
15
 30
0
 40
2
 41
0.8888888888888888
 71
    1
 72
    1
  1
x
  7
STANDARD
210
0
220
0
230
1
 50
0
 73
    2
 44
1
  0
MTEXT
  5
14B
100
AcDbEntity
  8
Coordinate_System
  6
ByLayer
 62
  256
370
   -1
100
AcDbMText
 10
53.5
 20
11
 30
0
 40
2
 41
0.8888888888888888
 71
    1
 72
    1
  1
y
  7
STANDARD
210
0
220
0
230
1
 50
0
 73
    2
 44
1
  0
LEADER
  5
14C
100
AcDbEntity
  8
Coordinate_System
  6
ByLayer
 62
  256
370
   -1
100
AcDbLeader
  3
Standard
 71
    1
 72
    0
 73
    3
 74
    0
 75
    0
 40
1
 41
10
 76
2
 76
2
 10
65
 20
15
 30
0
 10
70
 20
15
 30
0
  0
LEADER
  5
14D
100
AcDbEntity
  8
Coordinate_System
  6
ByLayer
 62
  256
370
   -1
100
AcDbLeader
  3
Standard
 71
    1
 72
    0
 73
    3
 74
    0
 75
    0
 40
1
 41
10
 76
2
 76
2
 10
70
 20
10.5
 30
0
 10
70
 20
15
 30
0
  0
MTEXT
  5
14E
100
AcDbEntity
  8
Coordinate_System
  6
ByLayer
 62
  256
370
   -1
100
AcDbMText
 10
63.5
 20
15
 30
0
 40
2
 41
0.8888888888888888
 71
    1
 72
    1
  1
x
  7
STANDARD
210
0
220
0
230
1
 50
0
 73
    2
 44
1
  0
MTEXT
  5
14F
100
AcDbEntity
  8
Coordinate_System
  6
ByLayer
 62
  256
370
   -1
100
AcDbMText
 10
68.5
 20
11
 30
0
 40
2
 41
0.8888888888888888
 71
    1
 72
    1
  1
y
  7
STANDARD
210
0
220
0
230
1
 50
0
 73
    2
 44
1
  0
LEADER
  5
150
100
AcDbEntity
  8
Coordinate_System
  6
ByLayer
 62
  256
370
   -1
100
AcDbLeader
  3
Standard
 71
    1
 72
    0
 73
    3
 74
    0
 75
    0
 40
1
 41
10
 76
2
 76
2
 10
80
 20
15
 30
0
 10
85
 20
15
 30
0
  0
LEADER
  5
151
100
AcDbEntity
  8
Coordinate_System
  6
ByLayer
 62
  256
370
   -1
100
AcDbLeader
  3
Standard
 71
    1
 72
    0
 73
    3
 74
    0
 75
    0
 40
1
 41
10
 76
2
 76
2
 10
85
 20
10.5
 30
0
 10
85
 20
15
 30
0
  0
MTEXT
  5
152
100
AcDbEntity
  8
Coordinate_System
  6
ByLayer
 62
  256
370
   -1
100
AcDbMText
 10
78.5
 20
15
 30
0
 40
2
 41
0.8888888888888888
 71
    1
 72
    1
  1
x
  7
STANDARD
210
0
220
0
230
1
 50
0
 73
    2
 44
1
  0
MTEXT
  5
153
100
AcDbEntity
  8
Coordinate_System
  6
ByLayer
 62
  256
370
   -1
100
AcDbMText
 10
83.5
 20
11
 30
0
 40
2
 41
0.8888888888888888
 71
    1
 72
    1
  1
y
  7
STANDARD
210
0
220
0
230
1
 50
0
 73
    2
 44
1
  0
LEADER
  5
154
100
AcDbEntity
  8
Coordinate_System
  6
ByLayer
 62
  256
370
   -1
100
AcDbLeader
  3
Standard
 71
    1
 72
    0
 73
    3
 74
    0
 75
    0
 40
1
 41
10
 76
2
 76
2
 10
95
 20
15
 30
0
 10
100
 20
15
 30
0
  0
LEADER
  5
155
100
AcDbEntity
  8
Coordinate_System
  6
ByLayer
 62
  256
370
   -1
100
AcDbLeader
  3
Standard
 71
    1
 72
    0
 73
    3
 74
    0
 75
    0
 40
1
 41
10
 76
2
 76
2
 10
100
 20
10.5
 30
0
 10
100
 20
15
 30
0
  0
MTEXT
  5
156
100
AcDbEntity
  8
Coordinate_System
  6
ByLayer
 62
  256
370
   -1
100
AcDbMText
 10
93.5
 20
15
 30
0
 40
2
 41
0.8888888888888888
 71
    1
 72
    1
  1
x
  7
STANDARD
210
0
220
0
230
1
 50
0
 73
    2
 44
1
  0
MTEXT
  5
157
100
AcDbEntity
  8
Coordinate_System
  6
ByLayer
 62
  256
370
   -1
100
AcDbMText
 10
98.5
 20
11
 30
0
 40
2
 41
0.8888888888888888
 71
    1
 72
    1
  1
y
  7
STANDARD
210
0
220
0
230
1
 50
0
 73
    2
 44
1
  0
CIRCLE
  5
158
100
AcDbEntity
  8
0
  6
ByLayer
 62
  256
370
   -1
100
AcDbCircle
 10
22.5
 20
-34.99999974409804
 40
22.5
  0
ARC
  5
159
100
AcDbEntity
  8
Winding_Zones
  6
ByLayer
 62
  256
370
   -1
100
AcDbCircle
 10
22.50000000000001
 20
-34.99999974409804
 40
25
100
AcDbArc
 50
98.587
 51
141.413
  0
LINE
  5
15A
100
AcDbEntity
  8
Winding_Zones
  6
ByLayer
 62
  256
370
   -1
100
AcDbLine
 10
18.39392845145539
 20
-7.808275202505754
 11
19.14051567938728
 21
-12.75220221356579
  0
ARC
  5
15B
100
AcDbEntity
  8
Winding_Zones
  6
ByLayer
 62
  256
370
   -1
100
AcDbCircle
 10
22.50000000000001
 20
-34.99999974409804
 40
27.5
100
AcDbArc
 50
98.587
 51
141.413
  0
LINE
  5
15C
100
AcDbEntity
  8
Winding_Zones
  6
ByLayer
 62
  256
370
   -1
100
AcDbLine
 10
1.004311548544614
 20
-17.84817520250576
 11
4.912584320612734
 21
-20.96670221356579
  0
ARC
  5
15D
100
AcDbEntity
  8
Winding_Zones
  6
ByLayer
 62
  256
370
   -1
100
AcDbCircle
 10
22.49999999999999
 20
-34.99999974409805
 40
25
100
AcDbArc
 50
218.587
 51
261.413
  0
LINE
  5
15E
100
AcDbEntity
  8
Winding_Zones
  6
ByLayer
 62
  256
370
   -1
100
AcDbLine
 10
1.00431154854461
 20
-52.15182428569033
 11
4.912584320612723
 21
-49.03329727463029
  0
ARC
  5
15F
100
AcDbEntity
  8
Winding_Zones
  6
ByLayer
 62
  256
370
   -1
100
AcDbCircle
 10
22.49999999999999
 20
-34.99999974409805
 40
27.5
100
AcDbArc
 50
218.587
 51
261.413
  0
LINE
  5
160
100
AcDbEntity
  8
Winding_Zones
  6
ByLayer
 62
  256
370
   -1
100
AcDbLine
 10
18.39392845145538
 20
-62.19172428569033
 11
19.14051567938726
 21
-57.2477972746303
  0
ARC
  5
161
100
AcDbEntity
  8
Winding_Zones
  6
ByLayer
 62
  256
370
   -1
100
AcDbCircle
 10
22.5
 20
-34.99999974409806
 40
25
100
AcDbArc
 50
338.587
 51
21.413
  0
LINE
  5
162
100
AcDbEntity
  8
Winding_Zones
  6
ByLayer
 62
  256
370
   -1
100
AcDbLine
 10
48.10176
 20
-45.03989974409807
 11
43.44689999999999
 21
-43.21449974409807
  0
ARC
  5
163
100
AcDbEntity
  8
Winding_Zones
  6
ByLayer
 62
  256
370
   -1
100
AcDbCircle
 10
22.5
 20
-34.99999974409806
 40
27.5
100
AcDbArc
 50
338.587
 51
21.413
  0
LINE
  5
164
100
AcDbEntity
  8
Winding_Zones
  6
ByLayer
 62
  256
370
   -1
100
AcDbLine
 10
48.10176000000001
 20
-24.96009974409806
 11
43.4469
 21
-26.78549974409806
  0
LEADER
  5
165
100
AcDbEntity
  8
Coordinate_System
  6
ByLayer
 62
  256
370
   -1
100
AcDbLeader
  3
Standard
 71
    1
 72
    0
 73
    3
 74
    0
 75
    0
 40
1
 41
10
 76
2
 76
2
 10
6.919872981077805
 20
-18.01442815894817
 30
0
 10
11.25
 20
-15.51442815894817
 30
0
  0
LEADER
  5
166
100
AcDbEntity
  8
Coordinate_System
  6
ByLayer
 62
  256
370
   -1
100
AcDbLeader
  3
Standard
 71
    1
 72
    0
 73
    3
 74
    0
 75
    0
 40
1
 41
10
 76
2
 76
2
 10
13.5
 20
-19.41154247597814
 30
0
 10
11.25
 20
-15.51442815894817
 30
0
  0
LEADER
  5
167
100
AcDbEntity
  8
Coordinate_System
  6
ByLayer
 62
  256
370
   -1
100
AcDbLeader
  3
Standard
 71
    1
 72
    0
 73
    3
 74
    0
 75
    0
 40
1
 41
10
 76
2
 76
2
 10
15.58012701892219
 20
-56.98557132924791
 30
0
 10
11.25
 20
-54.48557132924791
 30
0
  0
LEADER
  5
168
100
AcDbEntity
  8
Coordinate_System
  6
ByLayer
 62
  256
370
   -1
100
AcDbLeader
  3
Standard
 71
    1
 72
    0
 73
    3
 74
    0
 75
    0
 40
1
 41
10
 76
2
 76
2
 10
13.5
 20
-50.58845701221794
 30
0
 10
11.25
 20
-54.48557132924791
 30
0
  0
LEADER
  5
169
100
AcDbEntity
  8
Coordinate_System
  6
ByLayer
 62
  256
370
   -1
100
AcDbLeader
  3
Standard
 71
    1
 72
    0
 73
    3
 74
    0
 75
    0
 40
1
 41
10
 76
2
 76
2
 10
45
 20
-29.99999974409806
 30
0
 10
45
 20
-34.99999974409806
 30
0
  0
LEADER
  5
16A
100
AcDbEntity
  8
Coordinate_System
  6
ByLayer
 62
  256
370
   -1
100
AcDbLeader
  3
Standard
 71
    1
 72
    0
 73
    3
 74
    0
 75
    0
 40
1
 41
10
 76
2
 76
2
 10
40.5
 20
-34.99999974409805
 30
0
 10
45
 20
-34.99999974409806
 30
0
  0
MTEXT
  5
16B
100
AcDbEntity
  8
Coordinate_System
  6
ByLayer
 62
  256
370
   -1
100
AcDbMText
 10
13
 20
-18.99999974409804
 30
0
 40
2
 41
0.8888888888888888
 71
    1
 72
    1
  1
y
  7
STANDARD
210
0
220
0
230
1
 50
0
 73
    2
 44
1
  0
MTEXT
  5
16C
100
AcDbEntity
  8
Coordinate_System
  6
ByLayer
 62
  256
370
   -1
100
AcDbMText
 10
6
 20
-17.99999974409804
 30
0
 40
2
 41
0.8888888888888888
 71
    1
 72
    1
  1
x
  7
STANDARD
210
0
220
0
230
1
 50
0
 73
    2
 44
1
  0
MTEXT
  5
16D
100
AcDbEntity
  8
Coordinate_System
  6
ByLayer
 62
  256
370
   -1
100
AcDbMText
 10
45
 20
-26.99999974409804
 30
0
 40
2
 41
0.8888888888888888
 71
    1
 72
    1
  1
x
  7
STANDARD
210
0
220
0
230
1
 50
0
 73
    2
 44
1
  0
MTEXT
  5
16E
100
AcDbEntity
  8
Coordinate_System
  6
ByLayer
 62
  256
370
   -1
100
AcDbMText
 10
39
 20
-33.99999974409804
 30
0
 40
2
 41
0.8888888888888888
 71
    1
 72
    1
  1
y
  7
STANDARD
210
0
220
0
230
1
 50
0
 73
    2
 44
1
  0
MTEXT
  5
16F
100
AcDbEntity
  8
Coordinate_System
  6
ByLayer
 62
  256
370
   -1
100
AcDbMText
 10
16
 20
-55.99999974409804
 30
0
 40
2
 41
0.8888888888888888
 71
    1
 72
    1
  1
x
  7
STANDARD
210
0
220
0
230
1
 50
0
 73
    2
 44
1
  0
MTEXT
  5
170
100
AcDbEntity
  8
Coordinate_System
  6
ByLayer
 62
  256
370
   -1
100
AcDbMText
 10
14
 20
-47.99999974409804
 30
0
 40
2
 41
0.8888888888888888
 71
    1
 72
    1
  1
y
  7
STANDARD
210
0
220
0
230
1
 50
0
 73
    2
 44
1
  0
MTEXT
  5
171
100
AcDbEntity
  8
0
  6
ByLayer
 62
  256
370
   -1
100
AcDbMText
 10
0
 20
-70
 30
0
 40
2
 41
44.55632058532834
 71
    1
 72
    1
  1
PlainAirGap (air gap winding)\Pstarts_in_slot_middle = false\PCoilLayout::DoubleVertical
  7
STANDARD
210
0
220
0
230
1
 50
0
 73
    2
 44
1
  0
MTEXT
  5
172
100
AcDbEntity
  8
0
  6
ByLayer
 62
  256
370
   -1
100
AcDbMText
 10
55
 20
-70
 30
0
 40
2
 41
43.44520844564273
 71
    1
 72
    1
  1
SlottedAirGap\Pstarts_in_slot_middle = true\PCoilLayout::DoubleHorizontal
  7
STANDARD
210
0
220
0
230
1
 50
0
 73
    2
 44
1
  0
LINE
  5
173
100
AcDbEntity
  8
Winding_Zones
  6
ByLayer
 62
  256
370
   -1
100
AcDbLine
 10
60.00000000000001
 20
-85.5
 11
60.00000000000001
 21
-94
  0
LINE
  5
174
100
AcDbEntity
  8
Winding_Zones
  6
ByLayer
 62
  256
370
   -1
100
AcDbLine
 10
55.00000000000001
 20
-85.5
 11
65
 21
-85.50000000000001
  0
LINE
  5
175
100
AcDbEntity
  8
Winding_Zones
  6
ByLayer
 62
  256
370
   -1
100
AcDbLine
 10
0
 20
-89
 11
10
 21
-89
  0
LINE
  5
176
100
AcDbEntity
  8
Winding_Zones
  6
ByLayer
 62
  256
370
   -1
100
AcDbLine
 10
0
 20
-89
 11
0
 21
-84
  0
LINE
  5
177
100
AcDbEntity
  8
Winding_Zones
  6
ByLayer
 62
  256
370
   -1
100
AcDbLine
 10
0
 20
-84
 11
10
 21
-84
  0
LINE
  5
178
100
AcDbEntity
  8
Winding_Zones
  6
ByLayer
 62
  256
370
   -1
100
AcDbLine
 10
10
 20
-84
 11
10
 21
-89
  0
LINE
  5
179
100
AcDbEntity
  8
Winding_Zones
  6
ByLayer
 62
  256
370
   -1
100
AcDbLine
 10
0
 20
-86.5
 11
10
 21
-86.5
  0
LEADER
  5
17A
100
AcDbEntity
  8
Coordinate_System
  6
ByLayer
 62
  256
370
   -1
100
AcDbLeader
  3
Standard
 71
    1
 72
    0
 73
    3
 74
    0
 75
    0
 40
1
 41
10
 76
2
 76
2
 10
0
 20
-89
 30
0
 10
5
 20
-89
 30
0
  0
LEADER
  5
17B
100
AcDbEntity
  8
Coordinate_System
  6
ByLayer
 62
  256
370
   -1
100
AcDbLeader
  3
Standard
 71
    1
 72
    0
 73
    3
 74
    0
 75
    0
 40
1
 41
10
 76
2
 76
2
 10
5
 20
-93.5
 30
0
 10
5
 20
-89
 30
0
  0
MTEXT
  5
17C
100
AcDbEntity
  8
Coordinate_System
  6
ByLayer
 62
  256
370
   -1
100
AcDbMText
 10
-1.5
 20
-89
 30
0
 40
2
 41
0.8888888888888888
 71
    1
 72
    1
  1
x
  7
STANDARD
210
0
220
0
230
1
 50
0
 73
    2
 44
1
  0
MTEXT
  5
17D
100
AcDbEntity
  8
Coordinate_System
  6
ByLayer
 62
  256
370
   -1
100
AcDbMText
 10
3.5
 20
-93
 30
0
 40
2
 41
0.8888888888888888
 71
    1
 72
    1
  1
y
  7
STANDARD
210
0
220
0
230
1
 50
0
 73
    2
 44
1
  0
MTEXT
  5
17E
100
AcDbEntity
  8
0
  6
ByLayer
 62
  256
370
   -1
100
AcDbMText
 10
13
 20
-84
 30
0
 40
2
 41
28.22222325079709
 71
    1
 72
    1
  1
"zones" argument to\PWindingPeriodic::new
  7
STANDARD
210
0
220
0
230
1
 50
0
 73
    2
 44
1
  0
MTEXT
  5
17F
100
AcDbEntity
  8
0
  6
ByLayer
 62
  256
370
   -1
100
AcDbMText
 10
68
 20
-84
 30
0
 40
2
 41
28.22222325079709
 71
    1
 72
    1
  1
"zones" argument to\PWindingPeriodic::new
  7
STANDARD
210
0
220
0
230
1
 50
0
 73
    2
 44
1
  0
LEADER
  5
180
100
AcDbEntity
  8
Coordinate_System
  6
ByLayer
 62
  256
370
   -1
100
AcDbLeader
  3
Standard
 71
    1
 72
    0
 73
    3
 74
    0
 75
    0
 40
1
 41
10
 76
2
 76
2
 10
55
 20
-84
 30
0
 10
60
 20
-84
 30
0
  0
LEADER
  5
181
100
AcDbEntity
  8
Coordinate_System
  6
ByLayer
 62
  256
370
   -1
100
AcDbLeader
  3
Standard
 71
    1
 72
    0
 73
    3
 74
    0
 75
    0
 40
1
 41
10
 76
2
 76
2
 10
60
 20
-88.5
 30
0
 10
60
 20
-84
 30
0
  0
MTEXT
  5
182
100
AcDbEntity
  8
Coordinate_System
  6
ByLayer
 62
  256
370
   -1
100
AcDbMText
 10
53.5
 20
-84
 30
0
 40
2
 41
0.8888888888888888
 71
    1
 72
    1
  1
x
  7
STANDARD
210
0
220
0
230
1
 50
0
 73
    2
 44
1
  0
MTEXT
  5
183
100
AcDbEntity
  8
Coordinate_System
  6
ByLayer
 62
  256
370
   -1
100
AcDbMText
 10
58.5
 20
-88
 30
0
 40
2
 41
0.8888888888888888
 71
    1
 72
    1
  1
y
  7
STANDARD
210
0
220
0
230
1
 50
0
 73
    2
 44
1
  0
LINE
  5
184
100
AcDbEntity
  8
Winding_Zones
  6
ByLayer
 62
  256
370
   -1
100
AcDbLine
 10
55.00000000000001
 20
-94
 11
65
 21
-94
  0
LINE
  5
185
100
AcDbEntity
  8
Winding_Zones
  6
ByLayer
 62
  256
370
   -1
100
AcDbLine
 10
65
 20
-85.50000000000001
 11
65
 21
-94
  0
LINE
  5
186
100
AcDbEntity
  8
Winding_Zones
  6
ByLayer
 62
  256
370
   -1
100
AcDbLine
 10
55.00000000000001
 20
-94
 11
55.00000000000001
 21
-85.5
  0
LINE
  5
187
100
AcDbEntity
  8
0
  6
ByLayer
 62
  256
370
   -1
100
AcDbLine
 10
56.55005567935637
 20
-40
 11
65.05005567935638
 21
-40
  0
LINE
  5
188
100
AcDbEntity
  8
0
  6
ByLayer
 62
  256
370
   -1
100
AcDbLine
 10
65.05005567935638
 20
-40
 11
65.05005567935638
 21
-30
  0
LINE
  5
189
100
AcDbEntity
  8
0
  6
ByLayer
 62
  256
370
   -1
100
AcDbLine
 10
65.05005567935638
 20
-30
 11
56.55005567935637
 21
-30
  0
LINE
  5
18A
100
AcDbEntity
  8
0
  6
ByLayer
 62
  256
370
   -1
100
AcDbLine
 10
56.55005567935637
 20
-30
 11
56.55005567935637
 21
-33.5
  0
LINE
  5
18B
100
AcDbEntity
  8
0
  6
ByLayer
 62
  256
370
   -1
100
AcDbLine
 10
56.55005567935637
 20
-33.5
 11
55.05005567935637
 21
-33.5
  0
LINE
  5
18C
100
AcDbEntity
  8
0
  6
ByLayer
 62
  256
370
   -1
100
AcDbLine
 10
56.55005567935637
 20
-40
 11
56.55005567935637
 21
-36.5
  0
LINE
  5
18D
100
AcDbEntity
  8
0
  6
ByLayer
 62
  256
370
   -1
100
AcDbLine
 10
56.55005567935637
 20
-36.5
 11
55.05005567935637
 21
-36.5
  0
LINE
  5
18E
100
AcDbEntity
  8
Winding_Zones
  6
ByLayer
 62
  256
370
   -1
100
AcDbLine
 10
56.55005567935637
 20
-36.5
 11
56.55005567935637
 21
-33.5
  0
LINE
  5
18F
100
AcDbEntity
  8
Winding_Zones
  6
ByLayer
 62
  256
370
   -1
100
AcDbLine
 10
56.55005567935637
 20
-35
 11
65.05005567935638
 21
-35
  0
LINE
  5
190
100
AcDbEntity
  8
0
  6
ByLayer
 62
  256
370
   -1
100
AcDbLine
 10
92.30509917924402
 20
-50.64318398954691
 11
88.05509917924402
 21
-43.28196805737917
  0
LINE
  5
191
100
AcDbEntity
  8
0
  6
ByLayer
 62
  256
370
   -1
100
AcDbLine
 10
88.05509917924402
 20
-43.28196805737917
 11
79.39484514139964
 21
-48.28196805737917
  0
LINE
  5
192
100
AcDbEntity
  8
0
  6
ByLayer
 62
  256
370
   -1
100
AcDbLine
 10
79.39484514139964
 20
-48.28196805737917
 11
83.64484514139964
 21
-55.64318398954691
  0
LINE
  5
193
100
AcDbEntity
  8
0
  6
ByLayer
 62
  256
370
   -1
100
AcDbLine
 10
83.64484514139964
 20
-55.64318398954691
 11
86.67593405464518
 21
-53.89318398954691
  0
LINE
  5
194
100
AcDbEntity
  8
0
  6
ByLayer
 62
  256
370
   -1
100
AcDbLine
 10
86.67593405464518
 20
-53.89318398954691
 11
87.42593405464518
 21
-55.19222209522357
  0
LINE
  5
195
100
AcDbEntity
  8
0
  6
ByLayer
 62
  256
370
   -1
100
AcDbLine
 10
92.30509917924402
 20
-50.64318398954691
 11
89.2740102659985
 21
-52.39318398954691
  0
LINE
  5
196
100
AcDbEntity
  8
0
  6
ByLayer
 62
  256
370
   -1
100
AcDbLine
 10
89.2740102659985
 20
-52.39318398954691
 11
90.0240102659985
 21
-53.69222209522357
  0
LINE
  5
197
100
AcDbEntity
  8
Winding_Zones
  6
ByLayer
 62
  256
370
   -1
100
AcDbLine
 10
89.2740102659985
 20
-52.39318398954691
 11
86.67593405464518
 21
-53.89318398954691
  0
LINE
  5
198
100
AcDbEntity
  8
Winding_Zones
  6
ByLayer
 62
  256
370
   -1
100
AcDbLine
 10
87.97497216032184
 20
-53.14318398954691
 11
83.72497216032184
 21
-45.78196805737917
  0
LINE
  5
199
100
AcDbEntity
  8
0
  6
ByLayer
 62
  256
370
   -1
100
AcDbLine
 10
83.64484514139964
 20
-14.35681601045307
 11
79.39484514139964
 21
-21.7180319426208
  0
LINE
  5
19A
100
AcDbEntity
  8
0
  6
ByLayer
 62
  256
370
   -1
100
AcDbLine
 10
79.39484514139964
 20
-21.7180319426208
 11
88.05509917924402
 21
-26.71803194262081
  0
LINE
  5
19B
100
AcDbEntity
  8
0
  6
ByLayer
 62
  256
370
   -1
100
AcDbLine
 10
88.05509917924402
 20
-26.71803194262081
 11
92.30509917924402
 21
-19.35681601045307
  0
LINE
  5
19C
100
AcDbEntity
  8
0
  6
ByLayer
 62
  256
370
   -1
100
AcDbLine
 10
92.30509917924402
 20
-19.35681601045307
 11
89.2740102659985
 21
-17.60681601045307
  0
LINE
  5
19D
100
AcDbEntity
  8
0
  6
ByLayer
 62
  256
370
   -1
100
AcDbLine
 10
89.2740102659985
 20
-17.60681601045307
 11
90.0240102659985
 21
-16.30777790477642
  0
LINE
  5
19E
100
AcDbEntity
  8
0
  6
ByLayer
 62
  256
370
   -1
100
AcDbLine
 10
83.64484514139964
 20
-14.35681601045307
 11
86.67593405464518
 21
-16.10681601045307
  0
LINE
  5
19F
100
AcDbEntity
  8
0
  6
ByLayer
 62
  256
370
   -1
100
AcDbLine
 10
86.67593405464518
 20
-16.10681601045307
 11
87.42593405464518
 21
-14.80777790477642
  0
LINE
  5
1A0
100
AcDbEntity
  8
Winding_Zones
  6
ByLayer
 62
  256
370
   -1
100
AcDbLine
 10
86.67593405464518
 20
-16.10681601045307
 11
89.2740102659985
 21
-17.60681601045307
  0
LINE
  5
1A1
100
AcDbEntity
  8
Winding_Zones
  6
ByLayer
 62
  256
370
   -1
100
AcDbLine
 10
87.97497216032184
 20
-16.85681601045307
 11
83.72497216032183
 21
-24.21803194262081
  0
ARC
  5
1A2
100
AcDbEntity
  8
0
  6
ByLayer
 62
  256
370
   -1
100
AcDbCircle
 10
77.50000000000001
 20
-34.99999999999999
 40
22.5
100
AcDbArc
 50
183.8225537292744
 51
296.1774462707257
  0
ARC
  5
1A3
100
AcDbEntity
  8
0
  6
ByLayer
 62
  256
370
   -1
100
AcDbCircle
 10
77.50000000000001
 20
-34.99999999999999
 40
22.5
100
AcDbArc
 50
303.8225537292743
 51
56.17744627072565
  0
ARC
  5
1A4
100
AcDbEntity
  8
0
  6
ByLayer
 62
  256
370
   -1
100
AcDbCircle
 10
77.50000000000001
 20
-34.99999999999999
 40
22.5
100
AcDbArc
 50
63.82255372927434
 51
176.1774462707257
  0
LEADER
  5
1A5
100
AcDbEntity
  8
Coordinate_System
  6
ByLayer
 62
  256
370
   -1
100
AcDbLeader
  3
Standard
 71
    1
 72
    0
 73
    3
 74
    0
 75
    0
 40
1
 41
10
 76
2
 76
2
 10
54.99999977838242
 20
-39.99999987204902
 30
0
 10
54.99999977838242
 20
-34.99999987204901
 30
0
  0
LEADER
  5
1A6
100
AcDbEntity
  8
Coordinate_System
  6
ByLayer
 62
  256
370
   -1
100
AcDbLeader
  3
Standard
 71
    1
 72
    0
 73
    3
 74
    0
 75
    0
 40
1
 41
10
 76
2
 76
2
 10
59.49999977838242
 20
-34.99999987204901
 30
0
 10
54.99999977838242
 20
-34.99999987204901
 30
0
  0
LEADER
  5
1A7
100
AcDbEntity
  8
Coordinate_System
  6
ByLayer
 62
  256
370
   -1
100
AcDbLeader
  3
Standard
 71
    1
 72
    0
 73
    3
 74
    0
 75
    0
 40
1
 41
10
 76
2
 76
2
 10
93.0801267973046
 20
-51.98557145719889
 30
0
 10
88.74999977838242
 20
-54.48557145719889
 30
0
  0
LEADER
  5
1A8
100
AcDbEntity
  8
Coordinate_System
  6
ByLayer
 62
  256
370
   -1
100
AcDbLeader
  3
Standard
 71
    1
 72
    0
 73
    3
 74
    0
 75
    0
 40
1
 41
10
 76
2
 76
2
 10
86.49999977838242
 20
-50.58845714016891
 30
0
 10
88.74999977838242
 20
-54.48557145719889
 30
0
  0
LEADER
  5
1A9
100
AcDbEntity
  8
Coordinate_System
  6
ByLayer
 62
  256
370
   -1
100
AcDbLeader
  3
Standard
 71
    1
 72
    0
 73
    3
 74
    0
 75
    0
 40
1
 41
10
 76
2
 76
2
 10
84.41987275946023
 20
-13.01442828689915
 30
0
 10
88.74999977838243
 20
-15.51442828689915
 30
0
  0
LEADER
  5
1AA
100
AcDbEntity
  8
Coordinate_System
  6
ByLayer
 62
  256
370
   -1
100
AcDbLeader
  3
Standard
 71
    1
 72
    0
 73
    3
 74
    0
 75
    0
 40
1
 41
10
 76
2
 76
2
 10
86.49999977838243
 20
-19.41154260392912
 30
0
 10
88.74999977838243
 20
-15.51442828689915
 30
0
  0
MTEXT
  5
1AB
100
AcDbEntity
  8
Coordinate_System
  6
ByLayer
 62
  256
370
   -1
100
AcDbMText
 10
54.5
 20
-40.39999974409805
 30
0
 40
2
 41
0.8888888888888888
 71
    1
 72
    1
  1
x
  7
STANDARD
210
0
220
0
230
1
 50
0
 73
    2
 44
1
  0
MTEXT
  5
1AC
100
AcDbEntity
  8
Coordinate_System
  6
ByLayer
 62
  256
370
   -1
100
AcDbMText
 10
94
 20
-49.99999974409804
 30
0
 40
2
 41
0.8888888888888888
 71
    1
 72
    1
  1
x
  7
STANDARD
210
0
220
0
230
1
 50
0
 73
    2
 44
1
  0
MTEXT
  5
1AD
100
AcDbEntity
  8
Coordinate_System
  6
ByLayer
 62
  256
370
   -1
100
AcDbMText
 10
83
 20
-10.99999974409804
 30
0
 40
2
 41
0.8888888888888888
 71
    1
 72
    1
  1
x
  7
STANDARD
210
0
220
0
230
1
 50
0
 73
    2
 44
1
  0
MTEXT
  5
1AE
100
AcDbEntity
  8
Coordinate_System
  6
ByLayer
 62
  256
370
   -1
100
AcDbMText
 10
59.3833890126897
 20
-35
 30
0
 40
2
 41
0.8888888888888888
 71
    1
 72
    1
  1
y
  7
STANDARD
210
0
220
0
230
1
 50
0
 73
    2
 44
1
  0
MTEXT
  5
1AF
100
AcDbEntity
  8
Coordinate_System
  6
ByLayer
 62
  256
370
   -1
100
AcDbMText
 10
85
 20
-50
 30
0
 40
2
 41
0.8888888888888888
 71
    1
 72
    1
  1
y
  7
STANDARD
210
0
220
0
230
1
 50
0
 73
    2
 44
1
  0
MTEXT
  5
1B0
100
AcDbEntity
  8
Coordinate_System
  6
ByLayer
 62
  256
370
   -1
100
AcDbMText
 10
87
 20
-19
 30
0
 40
2
 41
0.8888888888888888
 71
    1
 72
    1
  1
y
  7
STANDARD
210
0
220
0
230
1
 50
0
 73
    2
 44
1
  0
DIMENSION
  5
1B1
100
AcDbEntity
  8
Dimensions
  6
ByLayer
 62
  256
370
   -1
100
AcDbDimension
  2
*D33
 10
43.52597420637585
 20
-43.00989416742331
 30
0
 11
23.30098944233253
 21
-32.89740232346045
 31
0
 70
   35
  1
air_gap_length / pi
 71
    5
 72
    0
  3
Standard
 53
0
210
0
220
0
230
1
100
AcDbDiametricDimension
 15
1.474025793624147
 25
-26.99010532077277
 35
0
 40
0
  0
DIMENSION
  5
1B2
100
AcDbEntity
  8
Dimensions
  6
ByLayer
 62
  256
370
   -1
100
AcDbDimension
  2
*D34
 10
97.73278949678043
 20
-44.84297867410937
 30
0
 11
78.48429786741096
 21
-32.97672105032195
 31
0
 70
   35
  1
air_gap_length / pi
 71
    5
 72
    0
  3
Standard
 53
0
210
0
220
0
230
1
100
AcDbDiametricDimension
 15
57.26721050321959
 25
-25.15702132589061
 35
0
 40
0
  0
ENDSEC
  0
SECTION
  2
OBJECTS
  0
DICTIONARY
  5
C
330
0
100
AcDbDictionary
281
    1
  3
ACAD_GROUP
350
D
  0
DICTIONARY
  5
D
330
C
100
AcDbDictionary
281
    1
  0
PLOTSETTINGS
  5
1B3
100
AcDbPlotSettings
  6
1x1
 40
0
 41
0
 42
0
 43
0
  0
ENDSEC
  0
EOF
