<?xml version="1.0" encoding="UTF-8" standalone="no"?>
<svg width="495.3mm" height="237.067mm"
 viewBox="0 0 1404 672"
 xmlns="http://www.w3.org/2000/svg" xmlns:xlink="http://www.w3.org/1999/xlink"  version="1.2" baseProfile="tiny">
<title>Qt SVG Document</title>
<desc>Generated with Qt</desc>
<defs>
</defs>
<g fill="none" stroke="black" stroke-width="1" fill-rule="evenodd" stroke-linecap="square" stroke-linejoin="bevel" >

<g fill="#ffffff" fill-opacity="1" stroke="none" transform="matrix(1,0,0,1,0,0)"
font-family="Ubuntu Sans" font-size="11" font-weight="400" font-style="normal" 
>
<rect x="0" y="0" width="1404" height="672"/>
</g>

<g fill="none" stroke="#ff0000" stroke-opacity="1" stroke-width="1" stroke-linecap="round" stroke-linejoin="round" transform="matrix(1,0,0,1,0,0)"
font-family="Ubuntu Sans" font-size="11" font-weight="400" font-style="normal" 
>
<polyline fill="none" vector-effect="non-scaling-stroke" points="542,382 547,375 " />
<polyline fill="none" vector-effect="non-scaling-stroke" points="542,375 547,382 " />
<polyline fill="none" vector-effect="non-scaling-stroke" points="301,129 297,139 " />
<polyline fill="none" vector-effect="non-scaling-stroke" points="297,139 296,139 " />
<polyline fill="none" vector-effect="non-scaling-stroke" points="296,129 298,136 " />
<polyline fill="none" vector-effect="non-scaling-stroke" points="306,136 306,372 " />
</g>

<g fill="#ff0000" fill-opacity="1" stroke="#ff0000" stroke-opacity="1" stroke-width="1" stroke-linecap="round" stroke-linejoin="round" transform="matrix(1,0,0,1,0,0)"
font-family="Ubuntu Sans" font-size="11" font-weight="400" font-style="normal" 
>
<path vector-effect="non-scaling-stroke" fill-rule="evenodd" d="M306,136 L309,155 L303,155 L306,136"/>
</g>

<g fill="none" stroke="#ff0000" stroke-opacity="1" stroke-width="1" stroke-linecap="round" stroke-linejoin="round" transform="matrix(1,0,0,1,0,0)"
font-family="Ubuntu Sans" font-size="11" font-weight="400" font-style="normal" 
>
<polyline fill="none" vector-effect="non-scaling-stroke" points="542,372 306,372 " />
</g>

<g fill="#ff0000" fill-opacity="1" stroke="#ff0000" stroke-opacity="1" stroke-width="1" stroke-linecap="round" stroke-linejoin="round" transform="matrix(1,0,0,1,0,0)"
font-family="Ubuntu Sans" font-size="11" font-weight="400" font-style="normal" 
>
<path vector-effect="non-scaling-stroke" fill-rule="evenodd" d="M542,372 L523,375 L523,369 L542,372"/>
</g>

<g fill="none" stroke="#000000" stroke-opacity="1" stroke-width="1" stroke-linecap="round" stroke-linejoin="round" transform="matrix(1,0,0,1,0,0)"
font-family="Ubuntu Sans" font-size="11" font-weight="400" font-style="normal" 
>
<circle vector-effect="non-scaling-stroke" cx="306" cy="372" r="295.316"/>
<circle vector-effect="non-scaling-stroke" cx="306" cy="372" r="147.658"/>
</g>

<g fill="#0000ff" fill-opacity="1" stroke="#0000ff" stroke-opacity="1" stroke-width="1" stroke-linecap="round" stroke-linejoin="round" transform="matrix(1,0,0,1,0,0)"
font-family="Ubuntu Sans" font-size="11" font-weight="400" font-style="normal" 
>
<path vector-effect="non-scaling-stroke" fill-rule="evenodd" d="M23,288 L43,291 L41,297 L23,288"/>
</g>

<g fill="none" stroke="#0000ff" stroke-opacity="1" stroke-width="1" stroke-linecap="round" stroke-linejoin="round" transform="matrix(1,0,0,1,0,0)"
font-family="Ubuntu Sans" font-size="11" font-weight="400" font-style="normal" 
>
<polyline fill="none" vector-effect="non-scaling-stroke" points="306,372 23,288 " />
<polyline fill="none" vector-effect="non-scaling-stroke" points="84,289 84,291 85,293 86,294 88,295 90,294 92,293 93,291 " />
<polyline fill="none" vector-effect="non-scaling-stroke" points="84,289 85,285 " />
<polyline fill="none" vector-effect="non-scaling-stroke" points="94,287 94,285 93,283 92,282 90,282 88,282 86,283 85,285 " />
<polyline fill="none" vector-effect="non-scaling-stroke" points="94,287 93,291 " />
<polyline fill="none" vector-effect="non-scaling-stroke" points="101,285 99,294 " />
<polyline fill="none" vector-effect="non-scaling-stroke" points="99,294 99,296 99,297 101,298 " />
<polyline fill="none" vector-effect="non-scaling-stroke" points="101,298 106,300 " />
<polyline fill="none" vector-effect="non-scaling-stroke" points="106,300 110,287 " />
<polyline fill="none" vector-effect="non-scaling-stroke" points="114,302 120,284 " />
<polyline fill="none" vector-effect="non-scaling-stroke" points="116,289 122,291 " />
<polyline fill="none" vector-effect="non-scaling-stroke" points="133,308 128,306 " />
<polyline fill="none" vector-effect="non-scaling-stroke" points="126,302 126,304 127,305 128,306 " />
<polyline fill="none" vector-effect="non-scaling-stroke" points="126,302 127,297 " />
<polyline fill="none" vector-effect="non-scaling-stroke" points="136,300 136,298 135,296 134,295 132,294 130,294 128,296 127,297 " />
<polyline fill="none" vector-effect="non-scaling-stroke" points="136,300 135,302 " />
<polyline fill="none" vector-effect="non-scaling-stroke" points="135,302 127,299 " />
<polyline fill="none" vector-effect="non-scaling-stroke" points="140,310 143,297 " />
<polyline fill="none" vector-effect="non-scaling-stroke" points="143,297 150,299 " />
<polyline fill="none" vector-effect="non-scaling-stroke" points="150,299 149,301 " />
<polyline fill="none" vector-effect="non-scaling-stroke" points="150,320 173,327 " />
<polyline fill="none" vector-effect="non-scaling-stroke" points="182,322 185,310 " />
<polyline fill="none" vector-effect="non-scaling-stroke" points="185,310 192,312 " />
<polyline fill="none" vector-effect="non-scaling-stroke" points="192,312 191,314 " />
<polyline fill="none" vector-effect="non-scaling-stroke" points="199,314 203,315 " />
<polyline fill="none" vector-effect="non-scaling-stroke" points="205,319 205,317 205,316 203,315 " />
<polyline fill="none" vector-effect="non-scaling-stroke" points="205,319 203,329 " />
<polyline fill="none" vector-effect="non-scaling-stroke" points="203,329 197,327 " />
<polyline fill="none" vector-effect="non-scaling-stroke" points="199,321 198,321 196,321 195,323 195,324 196,326 197,327 " />
<polyline fill="none" vector-effect="non-scaling-stroke" points="199,321 204,322 " />
<polyline fill="none" vector-effect="non-scaling-stroke" points="223,314 217,333 " />
<polyline fill="none" vector-effect="non-scaling-stroke" points="217,333 212,331 " />
<polyline fill="none" vector-effect="non-scaling-stroke" points="210,327 210,329 210,330 212,331 " />
<polyline fill="none" vector-effect="non-scaling-stroke" points="210,327 212,321 " />
<polyline fill="none" vector-effect="non-scaling-stroke" points="216,319 214,319 213,319 212,321 " />
<polyline fill="none" vector-effect="non-scaling-stroke" points="216,319 221,320 " />
<polyline fill="none" vector-effect="non-scaling-stroke" points="224,335 227,322 " />
<polyline fill="none" vector-effect="non-scaling-stroke" points="229,317 229,316 " />
<polyline fill="none" vector-effect="non-scaling-stroke" points="234,324 231,333 " />
<polyline fill="none" vector-effect="non-scaling-stroke" points="231,333 231,335 231,337 233,337 233,338 " />
<polyline fill="none" vector-effect="non-scaling-stroke" points="233,338 238,339 " />
<polyline fill="none" vector-effect="non-scaling-stroke" points="238,339 242,326 " />
<polyline fill="none" vector-effect="non-scaling-stroke" points="245,340 246,341 248,342 250,343 " />
<polyline fill="none" vector-effect="non-scaling-stroke" points="250,343 252,343 253,342 254,341 254,340 253,338 " />
<polyline fill="none" vector-effect="non-scaling-stroke" points="253,338 248,334 " />
<polyline fill="none" vector-effect="non-scaling-stroke" points="251,329 249,329 248,330 247,331 247,332 248,333 248,334 " />
<polyline fill="none" vector-effect="non-scaling-stroke" points="255,332 254,330 252,329 251,329 " />
</g>

<g fill="#0000ff" fill-opacity="1" stroke="#0000ff" stroke-opacity="1" stroke-width="1" stroke-linecap="round" stroke-linejoin="round" transform="matrix(1,0,0,1,0,0)"
font-family="Ubuntu Sans" font-size="11" font-weight="400" font-style="normal" 
>
<path vector-effect="non-scaling-stroke" fill-rule="evenodd" d="M450,339 L468,331 L470,338 L450,339"/>
</g>

<g fill="none" stroke="#0000ff" stroke-opacity="1" stroke-width="1" stroke-linecap="round" stroke-linejoin="round" transform="matrix(1,0,0,1,0,0)"
font-family="Ubuntu Sans" font-size="11" font-weight="400" font-style="normal" 
>
<polyline fill="none" vector-effect="non-scaling-stroke" points="306,372 655,292 " />
<polyline fill="none" vector-effect="non-scaling-stroke" points="466,322 463,310 " />
<polyline fill="none" vector-effect="non-scaling-stroke" points="462,304 462,303 " />
<polyline fill="none" vector-effect="non-scaling-stroke" points="473,321 470,308 " />
<polyline fill="none" vector-effect="non-scaling-stroke" points="470,308 475,307 " />
<polyline fill="none" vector-effect="non-scaling-stroke" points="479,309 478,308 477,307 475,307 " />
<polyline fill="none" vector-effect="non-scaling-stroke" points="479,309 481,319 " />
<polyline fill="none" vector-effect="non-scaling-stroke" points="488,317 485,305 " />
<polyline fill="none" vector-effect="non-scaling-stroke" points="485,305 490,303 " />
<polyline fill="none" vector-effect="non-scaling-stroke" points="494,306 493,304 492,304 490,303 " />
<polyline fill="none" vector-effect="non-scaling-stroke" points="494,306 496,315 " />
<polyline fill="none" vector-effect="non-scaling-stroke" points="511,312 506,313 " />
<polyline fill="none" vector-effect="non-scaling-stroke" points="502,311 503,312 504,313 505,313 506,313 " />
<polyline fill="none" vector-effect="non-scaling-stroke" points="502,311 501,305 " />
<polyline fill="none" vector-effect="non-scaling-stroke" points="509,304 508,302 507,301 505,300 503,301 501,302 501,304 501,305 " />
<polyline fill="none" vector-effect="non-scaling-stroke" points="509,304 510,306 " />
<polyline fill="none" vector-effect="non-scaling-stroke" points="510,306 501,308 " />
<polyline fill="none" vector-effect="non-scaling-stroke" points="517,311 514,298 " />
<polyline fill="none" vector-effect="non-scaling-stroke" points="514,298 521,296 " />
<polyline fill="none" vector-effect="non-scaling-stroke" points="521,296 521,298 " />
<polyline fill="none" vector-effect="non-scaling-stroke" points="532,314 555,309 " />
<polyline fill="none" vector-effect="non-scaling-stroke" points="560,301 557,288 " />
<polyline fill="none" vector-effect="non-scaling-stroke" points="557,288 564,286 " />
<polyline fill="none" vector-effect="non-scaling-stroke" points="564,286 564,289 " />
<polyline fill="none" vector-effect="non-scaling-stroke" points="571,285 575,284 " />
<polyline fill="none" vector-effect="non-scaling-stroke" points="579,286 578,285 577,284 575,284 " />
<polyline fill="none" vector-effect="non-scaling-stroke" points="579,286 581,296 " />
<polyline fill="none" vector-effect="non-scaling-stroke" points="581,296 576,297 " />
<polyline fill="none" vector-effect="non-scaling-stroke" points="575,291 573,291 572,293 572,294 573,296 574,297 576,297 " />
<polyline fill="none" vector-effect="non-scaling-stroke" points="575,291 580,289 " />
<polyline fill="none" vector-effect="non-scaling-stroke" points="592,273 596,292 " />
<polyline fill="none" vector-effect="non-scaling-stroke" points="596,292 591,294 " />
<polyline fill="none" vector-effect="non-scaling-stroke" points="587,291 588,293 589,293 591,294 " />
<polyline fill="none" vector-effect="non-scaling-stroke" points="587,291 586,285 " />
<polyline fill="none" vector-effect="non-scaling-stroke" points="588,281 587,282 586,283 586,285 " />
<polyline fill="none" vector-effect="non-scaling-stroke" points="588,281 593,280 " />
<polyline fill="none" vector-effect="non-scaling-stroke" points="603,291 600,278 " />
<polyline fill="none" vector-effect="non-scaling-stroke" points="599,273 598,272 " />
<polyline fill="none" vector-effect="non-scaling-stroke" points="606,277 608,286 " />
<polyline fill="none" vector-effect="non-scaling-stroke" points="608,286 609,288 610,289 612,289 " />
<polyline fill="none" vector-effect="non-scaling-stroke" points="612,289 618,287 " />
<polyline fill="none" vector-effect="non-scaling-stroke" points="618,287 615,275 " />
<polyline fill="none" vector-effect="non-scaling-stroke" points="624,285 626,285 628,285 630,285 " />
<polyline fill="none" vector-effect="non-scaling-stroke" points="630,285 631,284 632,283 632,282 631,280 630,279 " />
<polyline fill="none" vector-effect="non-scaling-stroke" points="630,279 624,278 " />
<polyline fill="none" vector-effect="non-scaling-stroke" points="624,273 623,273 622,274 622,276 622,277 623,278 624,278 " />
<polyline fill="none" vector-effect="non-scaling-stroke" points="629,273 627,272 625,272 624,273 " />
</g>

<g fill="none" stroke="#000000" stroke-opacity="1" stroke-width="1" stroke-linecap="round" stroke-linejoin="round" transform="matrix(1,0,0,1,0,0)"
font-family="Ubuntu Sans" font-size="11" font-weight="400" font-style="normal" 
>
<polyline fill="none" vector-effect="non-scaling-stroke" points="897,77 897,667 " />
<polyline fill="none" vector-effect="non-scaling-stroke" points="897,667 1290,667 " />
<polyline fill="none" vector-effect="non-scaling-stroke" points="1290,667 1290,77 " />
<polyline fill="none" vector-effect="non-scaling-stroke" points="1290,77 897,77 " />
</g>

<g fill="none" stroke="#000000" stroke-opacity="1" stroke-width="1" stroke-linecap="round" stroke-linejoin="round" transform="matrix(1,0,0,1,0,0)"
font-family="Ubuntu Sans" font-size="11" font-weight="400" font-style="normal" 
>
<polyline fill="none" vector-effect="non-scaling-stroke" points="897,224 915,224 " />
<polyline fill="none" vector-effect="non-scaling-stroke" points="932,224 966,224 " />
<polyline fill="none" vector-effect="non-scaling-stroke" points="983,224 1017,224 " />
<polyline fill="none" vector-effect="non-scaling-stroke" points="1034,224 1068,224 " />
<polyline fill="none" vector-effect="non-scaling-stroke" points="1085,224 1119,224 " />
<polyline fill="none" vector-effect="non-scaling-stroke" points="1136,224 1170,224 " />
<polyline fill="none" vector-effect="non-scaling-stroke" points="1187,224 1221,224 " />
<polyline fill="none" vector-effect="non-scaling-stroke" points="1238,224 1272,224 " />
<polyline fill="none" vector-effect="non-scaling-stroke" points="1289,224 1290,224 " />
</g>

<g fill="none" stroke="#000000" stroke-opacity="1" stroke-width="1" stroke-linecap="round" stroke-linejoin="round" transform="matrix(1,0,0,1,0,0)"
font-family="Ubuntu Sans" font-size="11" font-weight="400" font-style="normal" 
>
<polyline fill="none" vector-effect="non-scaling-stroke" points="897,520 915,520 " />
<polyline fill="none" vector-effect="non-scaling-stroke" points="932,520 966,520 " />
<polyline fill="none" vector-effect="non-scaling-stroke" points="983,520 1017,520 " />
<polyline fill="none" vector-effect="non-scaling-stroke" points="1034,520 1068,520 " />
<polyline fill="none" vector-effect="non-scaling-stroke" points="1085,520 1119,520 " />
<polyline fill="none" vector-effect="non-scaling-stroke" points="1136,520 1170,520 " />
<polyline fill="none" vector-effect="non-scaling-stroke" points="1187,520 1221,520 " />
<polyline fill="none" vector-effect="non-scaling-stroke" points="1238,520 1272,520 " />
<polyline fill="none" vector-effect="non-scaling-stroke" points="1289,520 1290,520 " />
</g>

<g fill="none" stroke="#0000ff" stroke-opacity="1" stroke-width="1" stroke-linecap="round" stroke-linejoin="round" transform="matrix(1,0,0,1,0,0)"
font-family="Ubuntu Sans" font-size="11" font-weight="400" font-style="normal" 
>
<polyline fill="none" vector-effect="non-scaling-stroke" points="897,37 1290,37 " />
<polyline fill="none" vector-effect="non-scaling-stroke" points="1010,12 1015,12 " />
<polyline fill="none" vector-effect="non-scaling-stroke" points="1018,15 1018,14 1017,12 1015,12 " />
<polyline fill="none" vector-effect="non-scaling-stroke" points="1018,15 1018,25 " />
<polyline fill="none" vector-effect="non-scaling-stroke" points="1018,25 1013,25 " />
<polyline fill="none" vector-effect="non-scaling-stroke" points="1013,18 1011,19 1010,20 1009,21 1010,23 1011,24 1012,25 1013,25 " />
<polyline fill="none" vector-effect="non-scaling-stroke" points="1013,18 1018,18 " />
<polyline fill="none" vector-effect="non-scaling-stroke" points="1025,25 1033,12 " />
<polyline fill="none" vector-effect="non-scaling-stroke" points="1025,12 1033,25 " />
<polyline fill="none" vector-effect="non-scaling-stroke" points="1040,25 1040,12 " />
<polyline fill="none" vector-effect="non-scaling-stroke" points="1040,6 1040,5 " />
<polyline fill="none" vector-effect="non-scaling-stroke" points="1048,12 1052,12 " />
<polyline fill="none" vector-effect="non-scaling-stroke" points="1055,15 1055,14 1054,12 1052,12 " />
<polyline fill="none" vector-effect="non-scaling-stroke" points="1055,15 1055,25 " />
<polyline fill="none" vector-effect="non-scaling-stroke" points="1055,25 1050,25 " />
<polyline fill="none" vector-effect="non-scaling-stroke" points="1050,18 1048,19 1047,20 1046,21 1047,23 1048,24 1049,25 1050,25 " />
<polyline fill="none" vector-effect="non-scaling-stroke" points="1050,18 1055,18 " />
<polyline fill="none" vector-effect="non-scaling-stroke" points="1062,5 1062,23 " />
<polyline fill="none" vector-effect="non-scaling-stroke" points="1062,23 1062,24 1063,25 1064,25 " />
<polyline fill="none" vector-effect="non-scaling-stroke" points="1071,32 1095,32 " />
<polyline fill="none" vector-effect="non-scaling-stroke" points="1101,5 1101,23 " />
<polyline fill="none" vector-effect="non-scaling-stroke" points="1101,23 1101,24 1102,25 1103,25 " />
<polyline fill="none" vector-effect="non-scaling-stroke" points="1119,25 1113,25 " />
<polyline fill="none" vector-effect="non-scaling-stroke" points="1110,22 1110,23 1111,24 1113,25 " />
<polyline fill="none" vector-effect="non-scaling-stroke" points="1110,22 1110,16 " />
<polyline fill="none" vector-effect="non-scaling-stroke" points="1119,16 1118,14 1117,13 1115,12 1113,12 1111,13 1110,15 1110,16 " />
<polyline fill="none" vector-effect="non-scaling-stroke" points="1119,16 1119,18 " />
<polyline fill="none" vector-effect="non-scaling-stroke" points="1119,18 1110,18 " />
<polyline fill="none" vector-effect="non-scaling-stroke" points="1125,25 1125,12 " />
<polyline fill="none" vector-effect="non-scaling-stroke" points="1125,12 1131,12 " />
<polyline fill="none" vector-effect="non-scaling-stroke" points="1134,15 1134,14 1132,12 1131,12 " />
<polyline fill="none" vector-effect="non-scaling-stroke" points="1134,15 1134,25 " />
<polyline fill="none" vector-effect="non-scaling-stroke" points="1142,32 1146,32 " />
<polyline fill="none" vector-effect="non-scaling-stroke" points="1146,32 1148,31 1149,30 1149,29 1149,28 " />
<polyline fill="none" vector-effect="non-scaling-stroke" points="1149,28 1149,12 " />
<polyline fill="none" vector-effect="non-scaling-stroke" points="1149,12 1144,12 " />
<polyline fill="none" vector-effect="non-scaling-stroke" points="1144,12 1142,12 1141,13 1141,15 " />
<polyline fill="none" vector-effect="non-scaling-stroke" points="1141,15 1141,22 " />
<polyline fill="none" vector-effect="non-scaling-stroke" points="1141,22 1141,23 1142,24 1144,25 " />
<polyline fill="none" vector-effect="non-scaling-stroke" points="1144,25 1149,25 " />
<polyline fill="none" vector-effect="non-scaling-stroke" points="1158,25 1158,5 " />
<polyline fill="none" vector-effect="non-scaling-stroke" points="1156,12 1162,12 " />
<polyline fill="none" vector-effect="non-scaling-stroke" points="1169,25 1169,5 " />
<polyline fill="none" vector-effect="non-scaling-stroke" points="1169,12 1174,12 " />
<polyline fill="none" vector-effect="non-scaling-stroke" points="1178,15 1177,14 1176,12 1175,12 1174,12 " />
<polyline fill="none" vector-effect="non-scaling-stroke" points="1178,15 1178,25 " />
</g>

<g fill="#0000ff" fill-opacity="1" stroke="#0000ff" stroke-opacity="1" stroke-width="1" stroke-linecap="round" stroke-linejoin="round" transform="matrix(1,0,0,1,0,0)"
font-family="Ubuntu Sans" font-size="11" font-weight="400" font-style="normal" 
>
<path vector-effect="non-scaling-stroke" fill-rule="evenodd" d="M897,37 L916,34 L916,41 L897,37"/>
</g>

<g fill="#0000ff" fill-opacity="1" stroke="#0000ff" stroke-opacity="1" stroke-width="1" stroke-linecap="round" stroke-linejoin="round" transform="matrix(1,0,0,1,0,0)"
font-family="Ubuntu Sans" font-size="11" font-weight="400" font-style="normal" 
>
<path vector-effect="non-scaling-stroke" fill-rule="evenodd" d="M1290,37 L1271,41 L1271,34 L1290,37"/>
</g>

<g fill="none" stroke="#0000ff" stroke-opacity="1" stroke-width="1" stroke-linecap="round" stroke-linejoin="round" transform="matrix(1,0,0,1,0,0)"
font-family="Ubuntu Sans" font-size="11" font-weight="400" font-style="normal" 
>
<polyline fill="none" vector-effect="non-scaling-stroke" points="897,77 897,13 " />
<polyline fill="none" vector-effect="non-scaling-stroke" points="1290,77 1290,13 " />
</g>

<g fill="none" stroke="#ff0000" stroke-opacity="1" stroke-width="1" stroke-linecap="round" stroke-linejoin="round" transform="matrix(1,0,0,1,0,0)"
font-family="Ubuntu Sans" font-size="11" font-weight="400" font-style="normal" 
>
<polyline fill="none" vector-effect="non-scaling-stroke" points="1389,372 897,372 " />
</g>

<g fill="#ff0000" fill-opacity="1" stroke="#ff0000" stroke-opacity="1" stroke-width="1" stroke-linecap="round" stroke-linejoin="round" transform="matrix(1,0,0,1,0,0)"
font-family="Ubuntu Sans" font-size="11" font-weight="400" font-style="normal" 
>
<path vector-effect="non-scaling-stroke" fill-rule="evenodd" d="M1389,372 L1369,375 L1369,369 L1389,372"/>
</g>

<g fill="none" stroke="#ff0000" stroke-opacity="1" stroke-width="1" stroke-linecap="round" stroke-linejoin="round" transform="matrix(1,0,0,1,0,0)"
font-family="Ubuntu Sans" font-size="11" font-weight="400" font-style="normal" 
>
<polyline fill="none" vector-effect="non-scaling-stroke" points="897,136 897,372 " />
</g>

<g fill="#ff0000" fill-opacity="1" stroke="#ff0000" stroke-opacity="1" stroke-width="1" stroke-linecap="round" stroke-linejoin="round" transform="matrix(1,0,0,1,0,0)"
font-family="Ubuntu Sans" font-size="11" font-weight="400" font-style="normal" 
>
<path vector-effect="non-scaling-stroke" fill-rule="evenodd" d="M897,136 L900,155 L893,155 L897,136"/>
</g>

<g fill="none" stroke="#ff0000" stroke-opacity="1" stroke-width="1" stroke-linecap="round" stroke-linejoin="round" transform="matrix(1,0,0,1,0,0)"
font-family="Ubuntu Sans" font-size="11" font-weight="400" font-style="normal" 
>
<polyline fill="none" vector-effect="non-scaling-stroke" points="891,129 888,139 " />
<polyline fill="none" vector-effect="non-scaling-stroke" points="888,139 887,139 " />
<polyline fill="none" vector-effect="non-scaling-stroke" points="887,129 889,136 " />
<polyline fill="none" vector-effect="non-scaling-stroke" points="1389,375 1393,375 " />
<polyline fill="none" vector-effect="non-scaling-stroke" points="1393,375 1389,382 " />
<polyline fill="none" vector-effect="non-scaling-stroke" points="1389,382 1393,382 " />
</g>
</g>
</svg>
