<?xml version="1.0" encoding="UTF-8"?>
<svg xmlns="http://www.w3.org/2000/svg" xmlns:xlink="http://www.w3.org/1999/xlink" width="400" height="80" viewBox="0 0 400 80">
<rect x="-40" y="-8" width="480" height="96" fill="rgb(100%, 100%, 100%)" fill-opacity="1"/>
<path fill-rule="evenodd" fill="rgb(50%, 50%, 50%)" fill-opacity="1" stroke-width="0.5" stroke-linecap="round" stroke-linejoin="miter" stroke="rgb(0%, 0%, 0%)" stroke-opacity="1" stroke-miterlimit="10" d="M 398.019531 79.605469 L 1.980469 79.605469 L 1.980469 0.394531 L 16.5 0.394531 L 16.5 2.375 L 7.921875 3.695312 L 9.558594 18.324219 L 27.40625 18.324219 L 29.042969 3.695312 L 20.460938 2.375 L 20.460938 0.394531 L 49.503906 0.394531 L 49.503906 2.375 L 40.925781 3.695312 L 42.5625 18.324219 L 60.410156 18.324219 L 62.046875 3.695312 L 53.464844 2.375 L 53.464844 0.394531 L 82.507812 0.394531 L 82.507812 2.375 L 73.925781 3.695312 L 75.5625 18.324219 L 93.414062 18.324219 L 95.050781 3.695312 L 86.46875 2.375 L 86.46875 0.394531 L 115.511719 0.394531 L 115.511719 2.375 L 106.929688 3.695312 L 108.566406 18.324219 L 126.414062 18.324219 L 128.054688 3.695312 L 119.472656 2.375 L 119.472656 0.394531 L 148.515625 0.394531 L 148.515625 2.375 L 139.933594 3.695312 L 141.570312 18.324219 L 159.417969 18.324219 L 161.054688 3.695312 L 152.476562 2.375 L 152.476562 0.394531 L 181.519531 0.394531 L 181.519531 2.375 L 172.9375 3.695312 L 174.574219 18.324219 L 192.421875 18.324219 L 194.058594 3.695312 L 185.480469 2.375 L 185.480469 0.394531 L 214.519531 0.394531 L 214.519531 2.375 L 205.941406 3.695312 L 207.578125 18.324219 L 225.425781 18.324219 L 227.0625 3.695312 L 218.480469 2.375 L 218.480469 0.394531 L 247.523438 0.394531 L 247.523438 2.375 L 238.945312 3.695312 L 240.582031 18.324219 L 258.429688 18.324219 L 260.066406 3.695312 L 251.484375 2.375 L 251.484375 0.394531 L 280.527344 0.394531 L 280.527344 2.375 L 271.945312 3.695312 L 273.585938 18.324219 L 291.433594 18.324219 L 293.070312 3.695312 L 284.488281 2.375 L 284.488281 0.394531 L 313.53125 0.394531 L 313.53125 2.375 L 304.949219 3.695312 L 306.585938 18.324219 L 324.4375 18.324219 L 326.074219 3.695312 L 317.492188 2.375 L 317.492188 0.394531 L 346.535156 0.394531 L 346.535156 2.375 L 337.953125 3.695312 L 339.589844 18.324219 L 357.4375 18.324219 L 359.074219 3.695312 L 350.496094 2.375 L 350.496094 0.394531 L 379.539062 0.394531 L 379.539062 2.375 L 370.957031 3.695312 L 372.59375 18.324219 L 390.441406 18.324219 L 392.078125 3.695312 L 383.5 2.375 L 383.5 0.394531 L 398.019531 0.394531 Z M 46.203125 20.964844 L 56.765625 20.964844 L 56.765625 26.246094 L 64.6875 26.246094 L 64.6875 76.964844 L 38.285156 76.964844 L 38.285156 26.246094 L 46.203125 26.246094 Z M 145.214844 20.964844 L 155.777344 20.964844 L 155.777344 26.246094 L 163.695312 26.246094 L 163.695312 76.964844 L 137.292969 76.964844 L 137.292969 26.246094 L 145.214844 26.246094 Z M 244.222656 20.964844 L 254.785156 20.964844 L 254.785156 26.246094 L 262.707031 26.246094 L 262.707031 76.964844 L 236.304688 76.964844 L 236.304688 26.246094 L 244.222656 26.246094 Z M 343.234375 20.964844 L 353.796875 20.964844 L 353.796875 26.246094 L 361.714844 26.246094 L 361.714844 76.964844 L 335.3125 76.964844 L 335.3125 26.246094 L 343.234375 26.246094 Z M 343.234375 20.964844 "/>
</svg>
