<?xml version="1.0" encoding="UTF-8"?>
<svg xmlns="http://www.w3.org/2000/svg" xmlns:xlink="http://www.w3.org/1999/xlink" width="600" height="600" viewBox="0 0 600 600">
<defs>
<g>
<g id="glyph-0-0">
<path d="M 8.375 -5.734375 C 8.375 -4.503906 8.242188 -3.445312 7.984375 -2.5625 C 7.722656 -1.6875 7.316406 -1.015625 6.765625 -0.546875 C 6.210938 -0.078125 5.476562 0.15625 4.5625 0.15625 C 3.269531 0.15625 2.316406 -0.359375 1.703125 -1.390625 C 1.085938 -2.429688 0.78125 -3.878906 0.78125 -5.734375 C 0.78125 -6.960938 0.90625 -8.015625 1.15625 -8.890625 C 1.40625 -9.765625 1.804688 -10.429688 2.359375 -10.890625 C 2.921875 -11.359375 3.65625 -11.59375 4.5625 -11.59375 C 5.84375 -11.59375 6.796875 -11.078125 7.421875 -10.046875 C 8.054688 -9.023438 8.375 -7.585938 8.375 -5.734375 Z M 2.1875 -5.734375 C 2.1875 -4.160156 2.363281 -2.984375 2.71875 -2.203125 C 3.082031 -1.429688 3.695312 -1.046875 4.5625 -1.046875 C 5.414062 -1.046875 6.023438 -1.429688 6.390625 -2.203125 C 6.753906 -2.972656 6.9375 -4.148438 6.9375 -5.734375 C 6.9375 -7.285156 6.753906 -8.453125 6.390625 -9.234375 C 6.023438 -10.015625 5.414062 -10.40625 4.5625 -10.40625 C 3.695312 -10.40625 3.082031 -10.015625 2.71875 -9.234375 C 2.363281 -8.453125 2.1875 -7.285156 2.1875 -5.734375 Z M 2.1875 -5.734375 "/>
</g>
<g id="glyph-0-1">
<path d="M 5.6875 0 L 4.296875 0 L 4.296875 -7.984375 C 4.296875 -8.441406 4.300781 -8.804688 4.3125 -9.078125 C 4.332031 -9.359375 4.351562 -9.648438 4.375 -9.953125 C 4.195312 -9.785156 4.039062 -9.640625 3.90625 -9.515625 C 3.769531 -9.398438 3.59375 -9.253906 3.375 -9.078125 L 2.15625 -8.078125 L 1.421875 -9.03125 L 4.515625 -11.421875 L 5.6875 -11.421875 Z M 5.6875 0 "/>
</g>
<g id="glyph-0-2">
<path d="M 8.3125 0 L 0.765625 0 L 0.765625 -1.171875 L 3.765625 -4.1875 C 4.335938 -4.769531 4.820312 -5.285156 5.21875 -5.734375 C 5.613281 -6.179688 5.910156 -6.617188 6.109375 -7.046875 C 6.316406 -7.484375 6.421875 -7.957031 6.421875 -8.46875 C 6.421875 -9.09375 6.234375 -9.566406 5.859375 -9.890625 C 5.484375 -10.222656 5 -10.390625 4.40625 -10.390625 C 3.84375 -10.390625 3.347656 -10.289062 2.921875 -10.09375 C 2.503906 -9.90625 2.078125 -9.640625 1.640625 -9.296875 L 0.890625 -10.234375 C 1.335938 -10.609375 1.851562 -10.925781 2.4375 -11.1875 C 3.019531 -11.445312 3.675781 -11.578125 4.40625 -11.578125 C 5.46875 -11.578125 6.304688 -11.304688 6.921875 -10.765625 C 7.546875 -10.234375 7.859375 -9.492188 7.859375 -8.546875 C 7.859375 -7.941406 7.734375 -7.378906 7.484375 -6.859375 C 7.242188 -6.335938 6.90625 -5.820312 6.46875 -5.3125 C 6.03125 -4.8125 5.515625 -4.273438 4.921875 -3.703125 L 2.546875 -1.34375 L 2.546875 -1.28125 L 8.3125 -1.28125 Z M 8.3125 0 "/>
</g>
<g id="glyph-0-3">
<path d="M 7.890625 -8.75 C 7.890625 -7.976562 7.675781 -7.363281 7.25 -6.90625 C 6.820312 -6.457031 6.242188 -6.160156 5.515625 -6.015625 L 5.515625 -5.953125 C 6.429688 -5.847656 7.113281 -5.5625 7.5625 -5.09375 C 8.007812 -4.625 8.234375 -4.007812 8.234375 -3.25 C 8.234375 -2.582031 8.078125 -1.988281 7.765625 -1.46875 C 7.460938 -0.957031 6.988281 -0.554688 6.34375 -0.265625 C 5.695312 0.015625 4.867188 0.15625 3.859375 0.15625 C 3.253906 0.15625 2.695312 0.109375 2.1875 0.015625 C 1.675781 -0.0664062 1.1875 -0.226562 0.71875 -0.46875 L 0.71875 -1.78125 C 1.195312 -1.539062 1.710938 -1.351562 2.265625 -1.21875 C 2.828125 -1.09375 3.363281 -1.03125 3.875 -1.03125 C 4.894531 -1.03125 5.628906 -1.226562 6.078125 -1.625 C 6.535156 -2.019531 6.765625 -2.570312 6.765625 -3.28125 C 6.765625 -4 6.484375 -4.515625 5.921875 -4.828125 C 5.367188 -5.140625 4.582031 -5.296875 3.5625 -5.296875 L 2.46875 -5.296875 L 2.46875 -6.5 L 3.578125 -6.5 C 4.515625 -6.5 5.226562 -6.695312 5.71875 -7.09375 C 6.207031 -7.488281 6.453125 -8.007812 6.453125 -8.65625 C 6.453125 -9.207031 6.265625 -9.632812 5.890625 -9.9375 C 5.515625 -10.25 5.007812 -10.40625 4.375 -10.40625 C 3.75 -10.40625 3.21875 -10.3125 2.78125 -10.125 C 2.34375 -9.945312 1.910156 -9.71875 1.484375 -9.4375 L 0.78125 -10.40625 C 1.1875 -10.71875 1.691406 -10.988281 2.296875 -11.21875 C 2.898438 -11.457031 3.585938 -11.578125 4.359375 -11.578125 C 5.546875 -11.578125 6.429688 -11.3125 7.015625 -10.78125 C 7.597656 -10.25 7.890625 -9.570312 7.890625 -8.75 Z M 7.890625 -8.75 "/>
</g>
<g id="glyph-0-4">
<path d="M 8.828125 -2.59375 L 7.171875 -2.59375 L 7.171875 0 L 5.8125 0 L 5.8125 -2.59375 L 0.34375 -2.59375 L 0.34375 -3.796875 L 5.71875 -11.484375 L 7.171875 -11.484375 L 7.171875 -3.859375 L 8.828125 -3.859375 Z M 5.8125 -7.453125 C 5.8125 -8.003906 5.820312 -8.472656 5.84375 -8.859375 C 5.863281 -9.253906 5.878906 -9.628906 5.890625 -9.984375 L 5.828125 -9.984375 C 5.742188 -9.785156 5.632812 -9.566406 5.5 -9.328125 C 5.375 -9.085938 5.253906 -8.890625 5.140625 -8.734375 L 1.71875 -3.859375 L 5.8125 -3.859375 Z M 5.8125 -7.453125 "/>
</g>
<g id="glyph-0-5">
<path d="M 4.40625 -7.015625 C 5.570312 -7.015625 6.5 -6.71875 7.1875 -6.125 C 7.882812 -5.539062 8.234375 -4.710938 8.234375 -3.640625 C 8.234375 -2.460938 7.859375 -1.535156 7.109375 -0.859375 C 6.359375 -0.179688 5.3125 0.15625 3.96875 0.15625 C 3.382812 0.15625 2.832031 0.101562 2.3125 0 C 1.789062 -0.101562 1.359375 -0.257812 1.015625 -0.46875 L 1.015625 -1.796875 C 1.390625 -1.554688 1.851562 -1.367188 2.40625 -1.234375 C 2.957031 -1.109375 3.484375 -1.046875 3.984375 -1.046875 C 4.828125 -1.046875 5.503906 -1.242188 6.015625 -1.640625 C 6.535156 -2.035156 6.796875 -2.65625 6.796875 -3.5 C 6.796875 -4.25 6.566406 -4.820312 6.109375 -5.21875 C 5.648438 -5.625 4.925781 -5.828125 3.9375 -5.828125 C 3.632812 -5.828125 3.289062 -5.796875 2.90625 -5.734375 C 2.53125 -5.679688 2.222656 -5.628906 1.984375 -5.578125 L 1.28125 -6.03125 L 1.71875 -11.421875 L 7.4375 -11.421875 L 7.4375 -10.140625 L 2.90625 -10.140625 L 2.640625 -6.828125 C 2.816406 -6.859375 3.0625 -6.894531 3.375 -6.9375 C 3.6875 -6.988281 4.03125 -7.015625 4.40625 -7.015625 Z M 4.40625 -7.015625 "/>
</g>
<g id="glyph-0-6">
<path d="M 0.875 -4.875 C 0.875 -5.695312 0.945312 -6.503906 1.09375 -7.296875 C 1.238281 -8.097656 1.5 -8.820312 1.875 -9.46875 C 2.257812 -10.113281 2.789062 -10.625 3.46875 -11 C 4.15625 -11.382812 5.035156 -11.578125 6.109375 -11.578125 C 6.335938 -11.578125 6.585938 -11.566406 6.859375 -11.546875 C 7.128906 -11.523438 7.347656 -11.488281 7.515625 -11.4375 L 7.515625 -10.234375 C 7.328125 -10.304688 7.113281 -10.359375 6.875 -10.390625 C 6.632812 -10.421875 6.390625 -10.4375 6.140625 -10.4375 C 5.410156 -10.4375 4.796875 -10.3125 4.296875 -10.0625 C 3.804688 -9.820312 3.421875 -9.488281 3.140625 -9.0625 C 2.859375 -8.632812 2.65625 -8.140625 2.53125 -7.578125 C 2.40625 -7.023438 2.320312 -6.4375 2.28125 -5.8125 L 2.390625 -5.8125 C 2.628906 -6.1875 2.96875 -6.503906 3.40625 -6.765625 C 3.84375 -7.023438 4.40625 -7.15625 5.09375 -7.15625 C 6.082031 -7.15625 6.878906 -6.851562 7.484375 -6.25 C 8.097656 -5.644531 8.40625 -4.789062 8.40625 -3.6875 C 8.40625 -2.488281 8.078125 -1.546875 7.421875 -0.859375 C 6.765625 -0.179688 5.878906 0.15625 4.765625 0.15625 C 4.046875 0.15625 3.390625 -0.0195312 2.796875 -0.375 C 2.210938 -0.738281 1.742188 -1.296875 1.390625 -2.046875 C 1.046875 -2.796875 0.875 -3.738281 0.875 -4.875 Z M 4.75 -1.03125 C 5.425781 -1.03125 5.972656 -1.242188 6.390625 -1.671875 C 6.804688 -2.097656 7.015625 -2.769531 7.015625 -3.6875 C 7.015625 -4.40625 6.828125 -4.976562 6.453125 -5.40625 C 6.085938 -5.832031 5.535156 -6.046875 4.796875 -6.046875 C 4.296875 -6.046875 3.859375 -5.941406 3.484375 -5.734375 C 3.109375 -5.523438 2.816406 -5.257812 2.609375 -4.9375 C 2.398438 -4.625 2.296875 -4.296875 2.296875 -3.953125 C 2.296875 -3.492188 2.382812 -3.035156 2.5625 -2.578125 C 2.75 -2.128906 3.023438 -1.757812 3.390625 -1.46875 C 3.753906 -1.175781 4.207031 -1.03125 4.75 -1.03125 Z M 4.75 -1.03125 "/>
</g>
<g id="glyph-0-7">
<path d="M 2.171875 0 L 6.859375 -10.140625 L 0.703125 -10.140625 L 0.703125 -11.421875 L 8.375 -11.421875 L 8.375 -10.34375 L 3.734375 0 Z M 2.171875 0 "/>
</g>
<g id="glyph-0-8">
<path d="M 4.765625 0 L 0.640625 0 L 0.640625 -0.828125 L 1.984375 -1.140625 L 1.984375 -10.265625 L 0.640625 -10.59375 L 0.640625 -11.421875 L 4.765625 -11.421875 L 4.765625 -10.59375 L 3.421875 -10.265625 L 3.421875 -1.140625 L 4.765625 -0.828125 Z M 4.765625 0 "/>
</g>
<g id="glyph-0-9">
<path d="M 9.59375 -11.421875 L 5.515625 0 L 4.078125 0 L 0 -11.421875 L 1.5 -11.421875 L 4.078125 -4.09375 C 4.253906 -3.625 4.398438 -3.179688 4.515625 -2.765625 C 4.628906 -2.359375 4.722656 -1.96875 4.796875 -1.59375 C 4.867188 -1.96875 4.960938 -2.363281 5.078125 -2.78125 C 5.203125 -3.195312 5.347656 -3.644531 5.515625 -4.125 L 8.078125 -11.421875 Z M 9.59375 -11.421875 "/>
</g>
</g>
</defs>
<rect x="-60" y="-60" width="720" height="720" fill="rgb(100%, 100%, 100%)" fill-opacity="1"/>
<path fill-rule="evenodd" fill="rgb(50%, 50%, 50%)" fill-opacity="1" stroke-width="0.5" stroke-linecap="round" stroke-linejoin="miter" stroke="rgb(0%, 0%, 0%)" stroke-opacity="1" stroke-miterlimit="10" d="M 575 300 C 575 451.878906 451.878906 575 300 575 C 148.121094 575 25 451.878906 25 300 C 25 148.121094 148.121094 25 300 25 C 451.878906 25 575 148.121094 575 300 Z M 390 300 C 390 349.707031 349.707031 390 300 390 C 250.292969 390 210 349.707031 210 300 C 210 250.292969 250.292969 210 300 210 C 349.707031 210 390 250.292969 390 300 Z M 218.683594 381.316406 C 213.632812 376.265625 209.0625 370.757812 205.035156 364.859375 L 37.90625 364.859375 C 40.167969 373.996094 42.902344 383.007812 46.105469 391.859375 L 201.070312 391.859375 C 202.203125 393.078125 203.363281 394.28125 204.539062 395.460938 C 205.71875 396.636719 206.921875 397.796875 208.140625 398.929688 L 208.140625 553.894531 C 216.992188 557.097656 226.003906 559.832031 235.140625 562.09375 L 235.140625 394.964844 C 229.242188 390.9375 223.734375 386.367188 218.683594 381.316406 Z M 218.683594 218.683594 C 223.734375 213.632812 229.242188 209.0625 235.140625 205.035156 L 235.140625 37.90625 C 226.003906 40.167969 216.992188 42.902344 208.140625 46.105469 L 208.140625 201.070312 C 206.921875 202.203125 205.71875 203.363281 204.539062 204.539062 C 203.363281 205.71875 202.203125 206.921875 201.070312 208.140625 L 46.105469 208.140625 C 42.902344 216.992188 40.167969 226.003906 37.90625 235.140625 L 205.035156 235.140625 C 209.0625 229.242188 213.632812 223.734375 218.683594 218.683594 Z M 381.316406 218.683594 C 386.367188 223.734375 390.9375 229.242188 394.964844 235.140625 L 562.09375 235.140625 C 559.832031 226.003906 557.097656 216.992188 553.894531 208.140625 L 398.929688 208.140625 C 397.796875 206.921875 396.636719 205.71875 395.460938 204.539062 C 394.28125 203.363281 393.078125 202.203125 391.859375 201.070312 L 391.859375 46.105469 C 383.007812 42.902344 373.996094 40.167969 364.859375 37.90625 L 364.859375 205.035156 C 370.757812 209.0625 376.265625 213.632812 381.316406 218.683594 Z M 381.316406 381.316406 C 376.265625 386.367188 370.757812 390.9375 364.859375 394.964844 L 364.859375 562.09375 C 373.996094 559.832031 383.007812 557.097656 391.859375 553.894531 L 391.859375 398.929688 C 393.078125 397.796875 394.28125 396.636719 395.460938 395.460938 C 396.636719 394.28125 397.796875 393.078125 398.929688 391.859375 L 553.894531 391.859375 C 557.097656 383.007812 559.832031 373.996094 562.09375 364.859375 L 394.964844 364.859375 C 390.9375 370.757812 386.367188 376.265625 381.316406 381.316406 Z M 381.316406 381.316406 "/>
<path fill-rule="evenodd" fill="rgb(100%, 0%, 0%)" fill-opacity="1" stroke-width="0.5" stroke-linecap="round" stroke-linejoin="miter" stroke="rgb(0%, 0%, 0%)" stroke-opacity="1" stroke-miterlimit="10" d="M 105.546875 105.546875 C 80.007812 131.082031 59.753906 161.398438 45.933594 194.761719 L 29 183.449219 C 43.25 150.316406 63.457031 120.078125 88.613281 94.230469 Z M 105.546875 105.546875 "/>
<g fill="rgb(0%, 0%, 0%)" fill-opacity="1">
<use xlink:href="#glyph-0-0" x="59.871094" y="148.328125"/>
</g>
<path fill-rule="evenodd" fill="rgb(100%, 0%, 0%)" fill-opacity="1" stroke-width="0.5" stroke-linecap="round" stroke-linejoin="miter" stroke="rgb(0%, 0%, 0%)" stroke-opacity="1" stroke-miterlimit="10" d="M 194.761719 45.933594 C 161.398438 59.753906 131.082031 80.007812 105.546875 105.546875 L 94.230469 88.613281 C 120.078125 63.457031 150.316406 43.25 183.449219 29 Z M 194.761719 45.933594 "/>
<g fill="rgb(0%, 0%, 0%)" fill-opacity="1">
<use xlink:href="#glyph-0-1" x="139.054688" y="70.160156"/>
</g>
<path fill-rule="evenodd" fill="rgb(0%, 50%, 0%)" fill-opacity="1" stroke-width="0.5" stroke-linecap="round" stroke-linejoin="miter" stroke="rgb(0%, 0%, 0%)" stroke-opacity="1" stroke-miterlimit="10" d="M 494.453125 105.546875 C 468.917969 80.007812 438.601562 59.753906 405.238281 45.933594 L 416.550781 29 C 449.683594 43.25 479.921875 63.457031 505.769531 88.613281 Z M 494.453125 105.546875 "/>
<g fill="rgb(0%, 0%, 0%)" fill-opacity="1">
<use xlink:href="#glyph-0-2" x="452.847656" y="70.238281"/>
</g>
<path fill-rule="evenodd" fill="rgb(0%, 50%, 0%)" fill-opacity="1" stroke-width="0.5" stroke-linecap="round" stroke-linejoin="miter" stroke="rgb(0%, 0%, 0%)" stroke-opacity="1" stroke-miterlimit="10" d="M 554.066406 194.761719 C 540.246094 161.398438 519.992188 131.082031 494.453125 105.546875 L 511.386719 94.230469 C 536.542969 120.078125 556.75 150.316406 571 183.449219 Z M 554.066406 194.761719 "/>
<g fill="rgb(0%, 0%, 0%)" fill-opacity="1">
<use xlink:href="#glyph-0-3" x="531.074219" y="148.320313"/>
</g>
<path fill-rule="evenodd" fill="rgb(100%, 0%, 0%)" fill-opacity="1" stroke-width="0.5" stroke-linecap="round" stroke-linejoin="miter" stroke="rgb(0%, 0%, 0%)" stroke-opacity="1" stroke-miterlimit="10" d="M 494.453125 494.453125 C 519.992188 468.917969 540.246094 438.601562 554.066406 405.238281 L 571 416.550781 C 556.75 449.683594 536.542969 479.921875 511.386719 505.769531 Z M 494.453125 494.453125 "/>
<g fill="rgb(0%, 0%, 0%)" fill-opacity="1">
<use xlink:href="#glyph-0-4" x="530.96875" y="463.136719"/>
</g>
<path fill-rule="evenodd" fill="rgb(100%, 0%, 0%)" fill-opacity="1" stroke-width="0.5" stroke-linecap="round" stroke-linejoin="miter" stroke="rgb(0%, 0%, 0%)" stroke-opacity="1" stroke-miterlimit="10" d="M 405.238281 554.066406 C 438.601562 540.246094 468.917969 519.992188 494.453125 494.453125 L 505.769531 511.386719 C 479.921875 536.542969 449.683594 556.75 416.550781 571 Z M 405.238281 554.066406 "/>
<g fill="rgb(0%, 0%, 0%)" fill-opacity="1">
<use xlink:href="#glyph-0-5" x="452.769531" y="541.183594"/>
</g>
<path fill-rule="evenodd" fill="rgb(0%, 50%, 0%)" fill-opacity="1" stroke-width="0.5" stroke-linecap="round" stroke-linejoin="miter" stroke="rgb(0%, 0%, 0%)" stroke-opacity="1" stroke-miterlimit="10" d="M 105.546875 494.453125 C 131.082031 519.992188 161.398438 540.246094 194.761719 554.066406 L 183.449219 571 C 150.316406 556.75 120.078125 536.542969 94.230469 511.386719 Z M 105.546875 494.453125 "/>
<g fill="rgb(0%, 0%, 0%)" fill-opacity="1">
<use xlink:href="#glyph-0-6" x="137.96875" y="541.265625"/>
</g>
<path fill-rule="evenodd" fill="rgb(0%, 50%, 0%)" fill-opacity="1" stroke-width="0.5" stroke-linecap="round" stroke-linejoin="miter" stroke="rgb(0%, 0%, 0%)" stroke-opacity="1" stroke-miterlimit="10" d="M 45.933594 405.238281 C 59.753906 438.601562 80.007812 468.917969 105.546875 494.453125 L 88.613281 505.769531 C 63.457031 479.921875 43.25 449.683594 29 416.550781 Z M 45.933594 405.238281 "/>
<g fill="rgb(0%, 0%, 0%)" fill-opacity="1">
<use xlink:href="#glyph-0-7" x="59.910156" y="463.105469"/>
</g>
<path fill-rule="evenodd" fill="rgb(100%, 0%, 0%)" fill-opacity="1" stroke-width="0.5" stroke-linecap="round" stroke-linejoin="miter" stroke="rgb(0%, 0%, 0%)" stroke-opacity="1" stroke-miterlimit="10" d="M 50.070312 209.140625 L 200.070312 209.140625 L 200.070312 234.140625 L 50.070312 234.140625 Z M 50.070312 209.140625 "/>
<g fill="rgb(0%, 0%, 0%)" fill-opacity="1">
<use xlink:href="#glyph-0-8" x="122.367188" y="227.355469"/>
</g>
<path fill-rule="evenodd" fill="rgb(100%, 0%, 0%)" fill-opacity="1" stroke-width="0.5" stroke-linecap="round" stroke-linejoin="miter" stroke="rgb(0%, 0%, 0%)" stroke-opacity="1" stroke-miterlimit="10" d="M 209.140625 50.070312 L 209.140625 200.070312 L 234.140625 200.070312 L 234.140625 50.070312 Z M 209.140625 50.070312 "/>
<g fill="rgb(0%, 0%, 0%)" fill-opacity="1">
<use xlink:href="#glyph-0-8" x="216.226562" y="130.78125"/>
<use xlink:href="#glyph-0-8" x="221.650563" y="130.78125"/>
</g>
<path fill-rule="evenodd" fill="rgb(0%, 50%, 0%)" fill-opacity="1" stroke-width="0.5" stroke-linecap="round" stroke-linejoin="miter" stroke="rgb(0%, 0%, 0%)" stroke-opacity="1" stroke-miterlimit="10" d="M 390.859375 50.070312 L 390.859375 200.070312 L 365.859375 200.070312 L 365.859375 50.070312 Z M 390.859375 50.070312 "/>
<g fill="rgb(0%, 0%, 0%)" fill-opacity="1">
<use xlink:href="#glyph-0-8" x="370.230469" y="130.78125"/>
<use xlink:href="#glyph-0-8" x="375.654469" y="130.78125"/>
<use xlink:href="#glyph-0-8" x="381.078469" y="130.78125"/>
</g>
<path fill-rule="evenodd" fill="rgb(0%, 50%, 0%)" fill-opacity="1" stroke-width="0.5" stroke-linecap="round" stroke-linejoin="miter" stroke="rgb(0%, 0%, 0%)" stroke-opacity="1" stroke-miterlimit="10" d="M 549.929688 209.140625 L 399.929688 209.140625 L 399.929688 234.140625 L 549.929688 234.140625 Z M 549.929688 209.140625 "/>
<g fill="rgb(0%, 0%, 0%)" fill-opacity="1">
<use xlink:href="#glyph-0-8" x="467.097656" y="227.355469"/>
<use xlink:href="#glyph-0-9" x="472.521656" y="227.355469"/>
</g>
<path fill-rule="evenodd" fill="rgb(100%, 0%, 0%)" fill-opacity="1" stroke-width="0.5" stroke-linecap="round" stroke-linejoin="miter" stroke="rgb(0%, 0%, 0%)" stroke-opacity="1" stroke-miterlimit="10" d="M 549.929688 390.859375 L 399.929688 390.859375 L 399.929688 365.859375 L 549.929688 365.859375 Z M 549.929688 390.859375 "/>
<g fill="rgb(0%, 0%, 0%)" fill-opacity="1">
<use xlink:href="#glyph-0-9" x="470.128906" y="384.070312"/>
</g>
<path fill-rule="evenodd" fill="rgb(100%, 0%, 0%)" fill-opacity="1" stroke-width="0.5" stroke-linecap="round" stroke-linejoin="miter" stroke="rgb(0%, 0%, 0%)" stroke-opacity="1" stroke-miterlimit="10" d="M 390.859375 549.929688 L 390.859375 399.929688 L 365.859375 399.929688 L 365.859375 549.929688 Z M 390.859375 549.929688 "/>
<g fill="rgb(0%, 0%, 0%)" fill-opacity="1">
<use xlink:href="#glyph-0-9" x="371.175781" y="480.640625"/>
<use xlink:href="#glyph-0-8" x="380.775781" y="480.640625"/>
</g>
<path fill-rule="evenodd" fill="rgb(0%, 50%, 0%)" fill-opacity="1" stroke-width="0.5" stroke-linecap="round" stroke-linejoin="miter" stroke="rgb(0%, 0%, 0%)" stroke-opacity="1" stroke-miterlimit="10" d="M 209.140625 549.929688 L 209.140625 399.929688 L 234.140625 399.929688 L 234.140625 549.929688 Z M 209.140625 549.929688 "/>
<g fill="rgb(0%, 0%, 0%)" fill-opacity="1">
<use xlink:href="#glyph-0-9" x="211.746094" y="480.640625"/>
<use xlink:href="#glyph-0-8" x="221.346094" y="480.640625"/>
<use xlink:href="#glyph-0-8" x="226.770094" y="480.640625"/>
</g>
<path fill-rule="evenodd" fill="rgb(0%, 50%, 0%)" fill-opacity="1" stroke-width="0.5" stroke-linecap="round" stroke-linejoin="miter" stroke="rgb(0%, 0%, 0%)" stroke-opacity="1" stroke-miterlimit="10" d="M 50.070312 390.859375 L 200.070312 390.859375 L 200.070312 365.859375 L 50.070312 365.859375 Z M 50.070312 390.859375 "/>
<g fill="rgb(0%, 0%, 0%)" fill-opacity="1">
<use xlink:href="#glyph-0-9" x="112.460938" y="384.070312"/>
<use xlink:href="#glyph-0-8" x="122.060937" y="384.070312"/>
<use xlink:href="#glyph-0-8" x="127.484937" y="384.070312"/>
<use xlink:href="#glyph-0-8" x="132.908937" y="384.070312"/>
</g>
</svg>
